<svg width="113" height="117" viewBox="0 0 113 117" fill="none" xmlns="http://www.w3.org/2000/svg">
<path d="M67.756 16.7955C90.9564 23.012 104.724 46.8588 98.5079 70.0586C92.2908 93.2589 68.4436 107.026 45.2437 100.81C22.0439 94.5929 8.27587 70.7466 14.4929 47.5468C20.7089 24.3465 44.5557 10.5789 67.756 16.7955Z" fill="#038159"/>
<path d="M49.2914 75.3276C48.7952 75.7755 48.0317 75.7431 47.5747 75.2553L31.7884 58.3966C31.2483 57.7222 30.9867 56.8724 31.0561 56.0177C31.1254 55.1622 31.521 54.3657 32.1634 53.7853C32.8059 53.2054 33.6481 52.8853 34.5211 52.8886C35.3945 52.8919 36.2347 53.2187 36.8743 53.8043L48.2514 65.9541C48.5556 66.2793 49.0649 66.3003 49.3955 66.0015L73.2559 44.4565C73.9419 43.9267 74.8072 43.6709 75.6776 43.741C76.5482 43.8106 77.36 44.1999 77.9516 44.8323C78.5432 45.4634 78.8706 46.2913 78.8685 47.149C78.8663 48.0066 78.5347 48.8311 77.9397 49.4587L49.2914 75.3276Z" fill="white"/>
<path d="M3.62832 49.5614C6.10884 49.0273 8.5526 50.6049 9.08714 53.0851C9.62127 55.5656 8.04363 58.0101 5.56311 58.5443C3.0826 59.0788 0.638431 57.5008 0.103895 55.0203C-0.430242 52.5397 1.1478 50.0956 3.62832 49.5614Z" fill="#FF6D83"/>
<path d="M100.684 35.2005C103.128 34.6743 105.536 36.2283 106.062 38.6724C106.589 41.1164 105.034 43.5242 102.59 44.0509C100.146 44.5772 97.7384 43.0231 97.2118 40.5791C96.6855 38.1351 98.2399 35.7268 100.684 35.2005Z" fill="#0373E3"/>
<path d="M56.7468 7.40971C59.3002 6.85986 61.8159 8.4839 62.3657 11.037C62.916 13.5904 61.2915 16.1069 58.738 16.6567C56.1846 17.207 53.6689 15.5826 53.1187 13.0291C52.5688 10.4756 54.1933 7.95955 56.7468 7.40971Z" fill="#FFB636"/>
<path d="M33.6608 107.393C36.2143 106.842 38.7295 108.467 39.2798 111.02C39.8296 113.573 38.206 116.089 35.6525 116.639C33.099 117.189 30.583 115.566 30.0327 113.012C29.4829 110.459 31.1073 107.943 33.6608 107.393Z" fill="#0373E3"/>
<path d="M98.2728 85.2428C100.862 84.6851 103.414 86.3323 103.972 88.9223C104.53 91.5122 102.882 94.0638 100.293 94.6215C97.7025 95.1796 95.151 93.5324 94.5929 90.9424C94.0352 88.3525 95.6828 85.8009 98.2728 85.2428Z" fill="#BDA3FF"/>
<path d="M20.9953 19.2442C19.442 16.7999 16.8528 14.4339 12.5371 13.2451" stroke="#FF6E83" stroke-width="5.28661" stroke-linecap="round"/>
<path d="M107.533 8.57423C112.798 19.84 95.921 15.33 101.78 6.72097C103.163 4.68906 104.648 3.25368 106.154 2.26052" stroke="#FFB636" stroke-width="4.52063" stroke-linecap="round"/>
</svg>
