<svg width="247" height="120" viewBox="0 0 247 120" fill="none" xmlns="http://www.w3.org/2000/svg">
<path d="M242.956 21H219.044C216.811 21 215 22.754 215 24.9177V48.0823C215 50.246 216.811 52 219.044 52H242.956C245.189 52 247 50.246 247 48.0823V24.9177C247 22.754 245.189 21 242.956 21Z" fill="#47B2C0"/>
<mask id="mask0_10_1231" style="mask-type:alpha" maskUnits="userSpaceOnUse" x="219" y="21" width="26" height="26">
<rect x="219" y="21" width="25.9999" height="25.9999" fill="#D9D9D9"/>
</mask>
<g mask="url(#mask0_10_1231)">
<mask id="mask1_10_1231" style="mask-type:alpha" maskUnits="userSpaceOnUse" x="223" y="27" width="18" height="18">
<rect x="223.334" y="27.4999" width="17.3333" height="17.3333" fill="#D9D9D9"/>
</mask>
<g mask="url(#mask1_10_1231)">
<path d="M232.773 43.9752C232.645 43.9993 232.518 44.0114 232.392 44.0114H232.001C230.913 44.0114 229.893 43.8065 228.939 43.3967C227.986 42.9869 227.155 42.4281 226.447 41.7203C225.74 41.0124 225.181 40.1817 224.771 39.2283C224.361 38.2747 224.156 37.2541 224.156 36.1666C224.156 35.0791 224.361 34.0585 224.771 33.1049C225.181 32.1515 225.74 31.3208 226.447 30.6129C227.155 29.9051 227.986 29.3463 228.939 28.9364C229.893 28.5267 230.913 28.3218 232.001 28.3218C233.089 28.3218 234.109 28.5267 235.063 28.9364C236.016 29.3463 236.847 29.9051 237.555 30.6129C238.262 31.3208 238.821 32.1515 239.231 33.1049C239.641 34.0585 239.846 35.0791 239.846 36.1666V36.5631C239.846 36.6918 239.834 36.8239 239.81 36.9594L238.095 36.4344V36.1666C238.095 34.472 237.503 33.0327 236.319 31.8486C235.135 30.6645 233.696 30.0725 232.001 30.0725C230.306 30.0725 228.867 30.6645 227.683 31.8486C226.499 33.0327 225.907 34.472 225.907 36.1666C225.907 37.8612 226.499 39.3005 227.683 40.4846C228.867 41.6687 230.306 42.2607 232.001 42.2607H232.258L232.773 43.9752ZM238.311 44.0662L235.152 40.8971L234.239 43.6439L232.001 36.1666L239.478 38.4048L236.732 39.3176L239.901 42.4766L238.311 44.0662Z" fill="white"/>
</g>
</g>
<path d="M68.0039 48.855C75.1184 50.669 85.4494 47.8866 85.4494 47.8866C84.359 47.1501 83.9502 44.6814 83.8411 42.1172C83.7593 40.2077 83.8411 38.2572 83.9229 36.8388C83.991 35.6521 84.0864 34.8611 84.0864 34.8611L69.1488 25.3545C70.6344 34.3837 70.3481 41.9808 69.4759 45.9635C69.0942 47.7502 68.0039 48.855 68.0039 48.855Z" fill="#FBAB99"/>
<path d="M74.8887 33.4699C74.8887 33.4699 78.9911 39.3621 83.8431 42.1036C83.7613 40.1941 83.8431 38.2436 83.9249 36.8251L74.8887 33.4699Z" fill="#EF998B"/>
<path d="M95.7404 14.402C95.7404 14.402 97.8257 36.1567 89.8935 40.9851C86.3226 43.1537 74.6287 33.2516 74.6287 33.2516C74.6287 33.2516 66.969 26.6365 68.2911 18.9712C70.7716 4.48627 93.5052 -0.0010643 95.7404 14.4157V14.402Z" fill="#FBAB99"/>
<path d="M99.5852 6.12304C99.3671 5.973 97.5136 7.37785 91.3668 2.52226C88.8726 0.558197 84.3749 -0.437473 79.2912 0.817344C74.7799 1.92213 73.4306 5.57746 73.4306 5.57746C73.4306 5.57746 69.887 4.8273 67.0658 8.4008C60.8235 16.3389 69.0011 34.4792 70.0642 34.7519C71.1273 35.0247 68.7285 22.8721 73.8122 23.0221C76.8379 23.104 77.792 28.3415 78.269 27.8641C78.7597 27.3731 78.2281 21.3309 78.7188 19.9942C78.8415 19.6532 79.7137 18.9985 80.6541 19.1213C83.012 19.435 82.535 15.4523 84.484 14.8658C85.7106 14.4976 89.4723 14.593 91.9937 15.2614C101.929 17.8938 103.033 8.52355 99.5988 6.13668L99.5852 6.12304Z" fill="#504F52"/>
<path d="M73.3759 24.9453C73.7984 24.7543 74.4935 24.6998 75.0114 25.7773C75.5429 26.8684 75.0931 26.7866 74.9841 27.4549C74.8751 28.1232 75.5157 28.096 75.6928 28.6824C75.8836 29.2553 75.6519 30.6192 74.4662 30.3737C73.2668 30.1146 72.9942 28.3005 72.8579 27.755C72.7217 27.2094 72.49 25.3545 73.3759 24.9589V24.9453Z" fill="#EF998B"/>
<path d="M101.15 109.848C101.559 113.272 102.963 114.854 98.956 115.017C98.956 115.017 89.4186 110.721 72.5319 115.017C60.0875 114.797 51.4007 116.927 53.0498 115.017C56.5253 94.6811 51.5261 84.2334 51.5261 84.2334C50.8719 68.2345 44.984 61.2102 46.1016 57.8686C46.5105 56.6547 49.7952 54.7589 53.8158 52.8494C57.8364 50.9399 62.5931 49.0167 65.9322 47.721L77.4626 42.7699L87.044 46.5753C92.005 48.4439 98.9968 52.9039 102.322 56.2319C106.629 60.5419 100.673 63.9927 100.033 73.7039C99.6783 79.0096 100.864 107.188 101.178 109.848H101.15Z" fill="#47B2C0"/>
<path d="M111.657 111.048H111.63C103.97 110.107 99.1044 78.9686 99.3497 70.3077L107.963 58.196C107.963 58.196 111.044 65.8749 114.287 97.3408C115.596 110.053 116.863 111.048 111.684 111.048H111.657Z" fill="#47B2C0"/>
<path d="M114.261 97.3544C118.39 97.9273 138.493 101.951 138.493 101.951C138.493 101.951 138.834 107.679 137.648 109.384C137.648 109.384 111.289 109.616 107.569 109.302C103.834 108.989 100.004 99.3321 98.5732 92.2124" fill="#47B2C0"/>
<path d="M97.3203 64.0609C97.3203 64.0609 97.9882 66.5296 98.8468 70.2668C99.2693 72.1353 99.7191 74.3313 100.155 76.6909C100.591 79.0505 101.014 81.5737 101.15 84.1789C101.259 86.7567 101.15 89.3209 101.027 91.7078C100.918 94.0946 100.809 96.3178 100.728 98.2274C100.673 100.137 100.646 101.719 100.7 102.837C100.755 103.956 100.823 104.583 100.823 104.583C100.823 104.583 100.782 104.433 100.714 104.133C100.632 103.847 100.55 103.41 100.469 102.851C100.292 101.746 100.128 100.137 100.087 98.2137C100.005 96.2906 100.046 94.0537 100.128 91.6532C100.155 90.4529 100.196 89.2254 100.223 87.9706C100.264 86.7294 100.305 85.4473 100.278 84.1925C100.169 81.6829 99.7872 79.1596 99.4601 76.8C99.1194 74.4404 98.7241 72.2445 98.4107 70.3486C97.7565 66.5705 97.3203 64.0609 97.3203 64.0609Z" fill="#727377"/>
<path d="M66.9658 47.2573C66.9658 47.2573 69.201 45.1022 69.4736 43.0018C69.4736 43.0018 72.7583 45.7842 78.2645 45.3341C78.2645 45.3341 78.3326 46.8344 78.8097 46.8754C79.2867 46.9163 79.3685 45.2796 79.3685 45.2796C79.3685 45.2796 82.7758 44.8567 83.9343 42.92C83.9343 42.92 85.2563 46.0979 87.0145 46.5617C87.0145 46.5617 84.6157 47.721 79.2322 48.4575C73.8486 49.194 66.9795 47.2573 66.9795 47.2573H66.9658Z" fill="#47B2C0"/>
<path d="M78.0064 50.8034C78.0064 50.8034 73.3588 89.2663 73.7268 95.1039C74.0948 100.942 78.6606 112.549 80.1735 113.094C81.6863 113.64 84.971 100.996 85.6252 95.7313C86.2794 90.4666 80.0781 50.7352 80.0781 50.7352" fill="#F3FEFF"/>
<path d="M77.4307 45.7978C78.0304 45.4159 79.6523 45.3614 80.2792 45.6478C80.9062 45.9342 81.5468 47.68 81.6558 48.1711C81.7648 48.6621 80.6336 50.367 80.1429 50.9808C79.3388 51.1853 78.0168 51.0899 78.0168 51.0899C78.0168 51.0899 76.5993 49.5486 76.4085 48.0756C76.3131 47.3527 76.9128 46.1388 77.4307 45.7978Z" fill="#F3FEFF"/>
<path d="M94.8098 103.806C94.0465 103.492 88.9628 102.292 87.8316 102.469C86.7003 102.646 83.2249 102.483 82.0528 102.483C80.8806 102.483 77.0645 102.005 77.0645 102.005L77.487 107.775C78.6182 107.666 80.1174 108.252 80.9352 108.361C81.7529 108.47 84.4924 108.484 86.1824 107.638C86.2778 107.584 86.3596 107.529 86.455 107.488C87.1365 108.089 87.9951 108.675 88.9356 108.73C88.9356 108.73 89.6715 108.661 89.6034 108.361C89.5625 108.211 89.0855 107.461 88.5948 106.738C89.3172 107.475 90.5029 108.675 91.8658 108.743C91.8658 108.743 92.6018 108.675 92.5337 108.375C92.4928 108.198 91.7841 107.134 91.2116 106.288C91.2116 106.288 91.2253 106.288 91.2389 106.302C91.8386 106.834 93.2697 108.648 94.9597 108.743C94.9597 108.743 95.6957 108.675 95.6275 108.375C95.6003 108.266 95.3277 107.816 94.9733 107.297C95.4095 107.625 95.9274 107.979 96.5679 108.293C98.3943 109.193 99.4301 108.511 99.4301 108.293C99.4301 108.075 95.5594 104.147 94.7825 103.833L94.8098 103.806Z" fill="#FBAB99"/>
<path d="M81.21 107.052H139.625C139.966 107.052 140.238 107.325 140.238 107.666V109.521H80.5967V107.666C80.5967 107.325 80.8693 107.052 81.21 107.052Z" fill="#3E5E9E"/>
<path d="M46.5657 57.1458C40.4053 63.8972 38.7561 81.7238 40.6642 96.4952C41.4411 102.524 41.1276 109.834 50.082 109.834C57.0193 109.834 77.8858 109.507 77.8858 109.507C79.0988 106.847 78.758 101.937 78.758 101.937L54.4707 97.2726C54.4707 97.2726 54.4707 76.6091 52.9851 71.6171" fill="#47B2C0"/>
<path d="M54.5012 71.4125C54.9509 75.7089 55.1963 80.0325 55.3189 84.3562C55.4007 86.5112 55.3735 88.6798 55.3326 90.8485C55.2781 93.0171 55.1826 95.1858 54.9646 97.3545L54.583 96.8225L62.7878 98.6093L70.9926 100.464C68.1986 100.232 65.4182 99.8095 62.6515 99.3458C61.2613 99.1412 59.8848 98.8548 58.5082 98.5956L54.3785 97.7773L53.9424 97.6954L53.9969 97.2453C54.2422 95.1176 54.3649 92.9762 54.4467 90.8349C54.5421 88.6798 54.5284 86.5385 54.5693 84.3835C54.6102 80.0734 54.5421 75.7634 54.5012 71.4398V71.4125Z" fill="#727377"/>
<path d="M54.4435 97.7772C54.4435 97.7772 53.2987 97.5727 52.1402 97.4226C50.9817 97.2726 49.8096 97.218 49.8096 97.218C49.8096 97.218 50.9681 97.0271 52.1538 96.9316C53.3259 96.8361 54.5253 96.7952 54.5253 96.7952L54.4435 97.7772Z" fill="#727377"/>
<path d="M78.2655 45.3341C78.2655 45.3341 77.4477 47.5027 77.0797 49.835C76.9162 50.0806 69.3247 48.4848 67.2803 46.9299C67.2803 46.9299 68.8068 43.4382 69.4746 43.0018C69.4746 43.0018 72.6638 44.4884 78.2655 45.3341Z" fill="#2D9BAA"/>
<path d="M79.3584 45.2795C79.3584 45.2795 80.8031 48.212 81.1029 49.5623C81.7844 49.5759 86.4865 46.5753 86.6501 46.4252C86.8136 46.2752 84.2786 42.8654 83.9378 42.9199C83.8015 43.22 82.1933 44.1338 79.372 45.2795H79.3584Z" fill="#2D9BAA"/>
<path d="M8.30084 115.808H212.942C214.418 115.808 215.627 114.404 215.627 112.658C215.627 110.926 214.43 109.507 212.942 109.507H8.30084C6.81271 109.521 5.61523 110.926 5.61523 112.671C5.61523 114.404 6.81271 115.822 8.30084 115.822V115.808Z" fill="#9FBDF9"/>
<path d="M215.629 112.671C215.629 114.404 214.432 115.822 212.944 115.822H8.30288C7.55882 115.822 6.88451 115.467 6.40785 114.908C5.91956 114.335 5.62891 113.544 5.62891 112.685H215.641L215.629 112.671Z" fill="#8FB2EA"/>
<path d="M183.936 96.2497H95.9179C94.7731 96.2497 93.8872 95.2404 94.0371 94.1083L101.779 34.9273C101.901 33.9862 102.705 33.277 103.659 33.277H191.677C192.822 33.277 193.708 34.2863 193.558 35.4183L185.817 94.5993C185.694 95.5404 184.89 96.2497 183.936 96.2497Z" fill="#ADADAD"/>
<path d="M187.235 96.2497H99.2168C98.0719 96.2497 97.186 95.2404 97.3359 94.1083L105.077 34.9273C105.2 33.9862 106.004 33.277 106.958 33.277H194.976C196.121 33.277 197.007 34.2863 196.857 35.4183L189.115 94.5993C188.993 95.5404 188.189 96.2497 187.235 96.2497Z" fill="#B3BECC"/>
<path d="M147.533 109.521H131.832L139.887 47.9393C139.996 47.1346 140.677 46.5344 141.482 46.5344H153.939C154.906 46.5344 155.67 47.3937 155.533 48.3621L147.533 109.521Z" fill="#ADADAD"/>
<path d="M149.618 109.521H133.917L141.972 47.9393C142.081 47.1346 142.762 46.5344 143.567 46.5344H156.024C156.991 46.5344 157.755 47.3937 157.618 48.3621L149.618 109.521Z" fill="#C7CAD0"/>
<path d="M117.054 106.807H164.62C165.384 106.807 166.011 107.434 166.011 108.198V109.521H115.678V108.198C115.678 107.434 116.305 106.807 117.068 106.807H117.054Z" fill="#5E83CC"/>
<path d="M25.2215 104.419L30.4531 104.564L31.6682 60.7576L26.4366 60.6123L25.2215 104.419Z" fill="#DDDDDD"/>
<path d="M26.3888 62.4978L28.3779 62.5531L28.3881 62.185L26.399 62.1297L26.3888 62.4978Z" fill="#BCBCBC"/>
<path d="M26.3644 63.4673L28.3535 63.5226L28.3637 63.1544L26.3746 63.0992L26.3644 63.4673Z" fill="#BCBCBC"/>
<path d="M26.3302 64.4232L28.3193 64.4784L28.3295 64.1103L26.3404 64.0551L26.3302 64.4232Z" fill="#BCBCBC"/>
<path d="M26.2804 66.3486L28.2695 66.4039L28.2797 66.0358L26.2906 65.9805L26.2804 66.3486Z" fill="#BCBCBC"/>
<path d="M26.2492 67.3181L28.2383 67.3734L28.2485 67.0052L26.2594 66.95L26.2492 67.3181Z" fill="#BCBCBC"/>
<path d="M26.2248 68.2876L28.2139 68.3429L28.2241 67.9748L26.235 67.9195L26.2248 68.2876Z" fill="#BCBCBC"/>
<path d="M26.1798 70.1994L28.1689 70.2547L28.1792 69.8866L26.19 69.8313L26.1798 70.1994Z" fill="#BCBCBC"/>
<path d="M26.1544 71.1826L28.1436 71.2378L28.1538 70.8697L26.1647 70.8145L26.1544 71.1826Z" fill="#BCBCBC"/>
<path d="M26.1212 72.1384L28.1104 72.1937L28.1206 71.8256L26.1314 71.7703L26.1212 72.1384Z" fill="#BCBCBC"/>
<path d="M26.0705 74.0775L28.0596 74.1327L28.0698 73.7646L26.0807 73.7094L26.0705 74.0775Z" fill="#BCBCBC"/>
<path d="M26.0402 75.0334L28.0293 75.0886L28.0395 74.7205L26.0504 74.6653L26.0402 75.0334Z" fill="#BCBCBC"/>
<path d="M26.0148 75.9892L28.0039 76.0445L28.0141 75.6764L26.025 75.6211L26.0148 75.9892Z" fill="#BCBCBC"/>
<path d="M25.9562 77.9283L27.9453 77.9835L27.9555 77.6154L25.9664 77.5602L25.9562 77.9283Z" fill="#BCBCBC"/>
<path d="M25.9455 78.8842L27.9346 78.9394L27.9448 78.5713L25.9557 78.5161L25.9455 78.8842Z" fill="#BCBCBC"/>
<path d="M25.9142 79.8537L27.9033 79.9089L27.9135 79.5408L25.9244 79.4856L25.9142 79.8537Z" fill="#BCBCBC"/>
<path d="M25.8615 81.7791L27.8506 81.8344L27.8608 81.4662L25.8717 81.411L25.8615 81.7791Z" fill="#BCBCBC"/>
<path d="M25.8341 82.7486L27.8232 82.8039L27.8335 82.4358L25.8443 82.3805L25.8341 82.7486Z" fill="#BCBCBC"/>
<path d="M25.7921 83.7041L27.7812 83.7594L27.7915 83.3913L25.8023 83.336L25.7921 83.7041Z" fill="#BCBCBC"/>
<path d="M25.7365 85.6431L27.7256 85.6984L27.7358 85.3303L25.7467 85.275L25.7365 85.6431Z" fill="#BCBCBC"/>
<path d="M25.7082 86.599L27.6973 86.6543L27.7075 86.2862L25.7184 86.2309L25.7082 86.599Z" fill="#BCBCBC"/>
<path d="M25.6945 87.5549L27.6836 87.6102L27.6938 87.2421L25.7047 87.1868L25.6945 87.5549Z" fill="#BCBCBC"/>
<path d="M25.6388 89.494L27.6279 89.5492L27.6381 89.1811L25.649 89.1259L25.6388 89.494Z" fill="#BCBCBC"/>
<path d="M25.6105 90.4498L27.5996 90.5051L27.6098 90.137L25.6207 90.0817L25.6105 90.4498Z" fill="#BCBCBC"/>
<path d="M25.5822 91.4057L27.5713 91.461L27.5815 91.0929L25.5924 91.0376L25.5822 91.4057Z" fill="#BCBCBC"/>
<path d="M25.5265 93.3448L27.5156 93.4L27.5258 93.0319L25.5367 92.9767L25.5265 93.3448Z" fill="#BCBCBC"/>
<path d="M25.4992 94.3006L27.4883 94.3559L27.4985 93.9878L25.5094 93.9325L25.4992 94.3006Z" fill="#BCBCBC"/>
<path d="M25.4875 95.2748L27.4766 95.3304L27.4868 94.9622L25.4977 94.9066L25.4875 95.2748Z" fill="#BCBCBC"/>
<path d="M25.4318 97.1955L27.4209 97.2508L27.4311 96.8827L25.442 96.8274L25.4318 97.1955Z" fill="#BCBCBC"/>
<path d="M25.4015 98.1651L27.3906 98.2203L27.4008 97.8522L25.4117 97.7969L25.4015 98.1651Z" fill="#BCBCBC"/>
<path d="M25.3761 99.1346L27.3652 99.1898L27.3754 98.8217L25.3863 98.7665L25.3761 99.1346Z" fill="#BCBCBC"/>
<path d="M25.3175 101.06L27.3066 101.115L27.3169 100.747L25.3277 100.692L25.3175 101.06Z" fill="#BCBCBC"/>
<path d="M25.2892 102.016L27.2783 102.071L27.2885 101.703L25.2994 101.648L25.2892 102.016Z" fill="#BCBCBC"/>
<path d="M25.2648 102.972L27.2539 103.027L27.2641 102.659L25.275 102.604L25.2648 102.972Z" fill="#BCBCBC"/>
<path d="M25.3364 100.092L28.252 100.173L28.2622 99.8049L25.3466 99.7239L25.3364 100.092Z" fill="#BCBCBC"/>
<path d="M25.2358 103.956L28.1514 104.037L28.1616 103.669L25.246 103.588L25.2358 103.956Z" fill="#BCBCBC"/>
<path d="M26.4057 61.5298L29.3213 61.6108L29.3315 61.2427L26.416 61.1617L26.4057 61.5298Z" fill="#BCBCBC"/>
<path d="M26.311 65.3943L29.2266 65.4753L29.2368 65.1072L26.3212 65.0262L26.311 65.3943Z" fill="#BCBCBC"/>
<path d="M26.1987 69.2451L29.1143 69.3261L29.1245 68.958L26.2089 68.877L26.1987 69.2451Z" fill="#BCBCBC"/>
<path d="M26.0845 73.0959L29 73.1769L29.0102 72.8088L26.0947 72.7278L26.0845 73.0959Z" fill="#BCBCBC"/>
<path d="M25.9897 76.9603L28.9053 77.0413L28.9155 76.6732L25.9999 76.5922L25.9897 76.9603Z" fill="#BCBCBC"/>
<path d="M25.8755 80.8111L28.791 80.8921L28.8012 80.524L25.8857 80.443L25.8755 80.8111Z" fill="#BCBCBC"/>
<path d="M25.7641 84.6616L28.6797 84.7426L28.6899 84.3744L25.7744 84.2934L25.7641 84.6616Z" fill="#BCBCBC"/>
<path d="M25.6548 88.5259L28.5703 88.6069L28.5805 88.2388L25.665 88.1578L25.6548 88.5259Z" fill="#BCBCBC"/>
<path d="M25.5542 92.3767L28.4697 92.4577L28.4799 92.0896L25.5644 92.0086L25.5542 92.3767Z" fill="#BCBCBC"/>
<path d="M25.4458 96.2412L28.3613 96.3222L28.3715 95.9541L25.456 95.8731L25.4458 96.2412Z" fill="#BCBCBC"/>
<path d="M27.9481 102.524L30.1279 102.875L35.103 71.9993L32.9232 71.6475L27.9481 102.524Z" fill="#FFD41D"/>
<path d="M32.9375 71.6405L35.1172 71.9926L35.1823 71.5886L33.0026 71.2365L32.9375 71.6405Z" fill="#99735E"/>
<path d="M33.002 71.2352L35.1826 71.5898L35.2235 71.317C35.3189 70.7169 34.9101 70.144 34.3104 70.0485C33.7107 69.9531 33.1382 70.3623 33.0428 70.9624L33.002 71.2352Z" fill="#FFD41D"/>
<path d="M27.96 102.51L28.2871 103.792L28.6414 105.183L29.4183 103.983L30.127 102.865L27.96 102.51Z" fill="#E59470"/>
<path d="M28.2861 103.792L28.6405 105.183L29.4174 103.97C29.2538 103.86 29.063 103.792 28.8586 103.751C28.6678 103.724 28.4633 103.738 28.2861 103.779V103.792Z" fill="#FFD41D"/>
<path d="M27.9531 102.511L29.043 102.687L34.0234 71.8117L32.9335 71.6357L27.9531 102.511Z" fill="#F7A616"/>
<path d="M28.4883 102.602L29.5781 102.778L34.5586 71.9032L33.4687 71.7271L28.4883 102.602Z" fill="#FFB83B"/>
<path d="M17.4479 70.9792L15.2686 71.3336L20.2813 102.204L22.4607 101.849L17.4479 70.9792Z" fill="#FFD41D"/>
<path d="M22.4792 101.852L20.2998 102.206L20.3654 102.61L22.5447 102.256L22.4792 101.852Z" fill="#99735E"/>
<path d="M22.5332 102.251L20.3525 102.606L20.3934 102.878C20.4888 103.478 21.0613 103.888 21.661 103.792C22.2606 103.697 22.6695 103.124 22.5741 102.524L22.5332 102.251Z" fill="#E8613D"/>
<path d="M17.4522 70.976L16.7435 69.8712L15.9666 68.6573L15.6123 70.0485L15.2852 71.3306L17.4522 70.976Z" fill="#E59470"/>
<path d="M16.7426 69.8712L15.9657 68.6573L15.6113 70.0485C15.8021 70.1031 16.0066 70.1167 16.1974 70.0758C16.3882 70.0485 16.579 69.9667 16.7426 69.8712Z" fill="#FFD41D"/>
<path d="M17.4608 70.9668L16.3711 71.144L21.3838 102.014L22.4735 101.837L17.4608 70.9668Z" fill="#F7A616"/>
<path d="M16.911 71.0667L15.8213 71.2439L20.834 102.114L21.9237 101.937L16.911 71.0667Z" fill="#FFB83B"/>
<path d="M25.4743 66.0968L23.2695 66.2156L24.9487 97.4453L27.1535 97.3266L25.4743 66.0968Z" fill="#9FBDF9"/>
<path d="M27.1628 97.3214L24.958 97.4401L24.98 97.8487L27.1847 97.73L27.1628 97.3214Z" fill="#99735E"/>
<path d="M27.1826 97.7364L24.9883 97.8592V98.132C25.0292 98.7457 25.5607 99.2095 26.1604 99.1685C26.7737 99.1413 27.2371 98.623 27.1962 98.0092V97.7364H27.1826Z" fill="#E8613D"/>
<path d="M25.4804 66.1068L24.8944 64.9338L24.2538 63.6381L23.7495 64.9884L23.2861 66.2159L25.4804 66.1068Z" fill="#E59470"/>
<path d="M24.8919 64.9338L24.2514 63.6381L23.7471 64.9884C23.9243 65.0566 24.1287 65.0975 24.3331 65.0839C24.5376 65.0839 24.7147 65.0157 24.8919 64.9338Z" fill="#92B6EA"/>
<path d="M25.4823 66.1006L24.3799 66.1602L26.0645 97.3897L27.1669 97.3301L25.4823 66.1006Z" fill="#82A5D8"/>
<path d="M24.9412 66.1262L23.8389 66.1855L25.518 97.4153L26.6204 97.356L24.9412 66.1262Z" fill="#92B6EA"/>
<path d="M22.0109 68.6518L18.4932 69.0797L19.6558 78.6523L23.1735 78.2244L22.0109 68.6518Z" fill="#362D70"/>
<path d="M23.174 78.2251L19.6562 78.653L22.3318 100.682L25.8495 100.254L23.174 78.2251Z" fill="#C7D6E2"/>
<path d="M23.2443 78.8033L19.7266 79.2312L19.8515 80.2602L23.3693 79.8323L23.2443 78.8033Z" fill="#362D70"/>
<g style="mix-blend-mode:soft-light">
<path d="M19.6673 68.9369L18.4902 69.0801L22.3284 100.682L23.5055 100.538L19.6673 68.9369Z" fill="#C7D6E2"/>
</g>
<path d="M33.6596 87.3432L31.7243 107.925L31.588 109.521H19.6351L17.5498 87.3432H33.6596Z" fill="#A3A0D8"/>
<path d="M33.6628 87.3432L31.7274 107.925H21.7508L19.8154 87.3432H33.6628Z" fill="#BFB8F4"/>
<path d="M198.45 99.7687C198.45 99.7687 192.317 96.1815 190.981 89.1164C190.981 89.1164 196.76 90.3166 199.65 99.7687" fill="#D6D4FF"/>
<path d="M200.876 99.7687C200.876 99.7687 207.009 96.1815 208.345 89.1164C208.345 89.1164 202.566 90.3166 199.677 99.7687" fill="#D6D4FF"/>
<path d="M199.027 99.1958C199.027 99.1958 194.597 93.631 195.906 86.5658C195.906 86.5658 200.867 89.771 200.158 99.6323" fill="#D6D4FF"/>
<path d="M200.452 99.2094C200.452 99.2094 204.745 93.5354 203.273 86.5112C203.273 86.5112 198.394 89.8392 199.334 99.6731" fill="#D6D4FF"/>
<path d="M206.207 98.3365H192.837V109.521H206.207V98.3365Z" fill="#594A5F"/>
<path d="M206.206 98.3365H203.575V109.521H206.206V98.3365Z" fill="#4C4051"/>
<g filter="url(#filter0_d_10_1231)">
<path d="M148.659 61.557H149.172C151.002 61.557 152.497 60.0587 152.497 58.2252V57.7115C152.497 55.878 151.002 54.3797 149.172 54.3797H148.659C146.829 54.3797 145.333 55.878 145.333 57.7115V58.2252C145.333 60.0587 146.829 61.557 148.659 61.557ZM146.01 57.7115C146.01 56.249 147.199 55.0575 148.659 55.0575H149.172C150.631 55.0575 151.821 56.249 151.821 57.7115V58.2252C151.821 59.6877 150.631 60.8792 149.172 60.8792H148.659C147.199 60.8792 146.01 59.6877 146.01 58.2252V57.7115Z" fill="white"/>
</g>
<defs>
<filter id="filter0_d_10_1231" x="141.333" y="54.3797" width="15.1641" height="15.1772" filterUnits="userSpaceOnUse" color-interpolation-filters="sRGB">
<feFlood flood-opacity="0" result="BackgroundImageFix"/>
<feColorMatrix in="SourceAlpha" type="matrix" values="0 0 0 0 0 0 0 0 0 0 0 0 0 0 0 0 0 0 127 0" result="hardAlpha"/>
<feOffset dy="4"/>
<feGaussianBlur stdDeviation="2"/>
<feComposite in2="hardAlpha" operator="out"/>
<feColorMatrix type="matrix" values="0 0 0 0 0 0 0 0 0 0 0 0 0 0 0 0 0 0 0.25 0"/>
<feBlend mode="normal" in2="BackgroundImageFix" result="effect1_dropShadow_10_1231"/>
<feBlend mode="normal" in="SourceGraphic" in2="effect1_dropShadow_10_1231" result="shape"/>
</filter>
</defs>
</svg>
