<svg width="69" height="73" viewBox="0 0 69 73" fill="none" xmlns="http://www.w3.org/2000/svg">
<g style="mix-blend-mode:multiply" opacity="0.2">
<rect width="36.9296" height="36.9296" transform="matrix(0.866025 0.5 -0.866025 0.5 37.0176 17.1434)" fill="#E6E6E6"/>
<rect width="36.9296" height="18.4648" transform="matrix(0.866025 0.5 0 1 5.03516 35.6084)" fill="#C0C0C0"/>
<rect width="36.9296" height="18.4648" transform="matrix(0.866025 -0.5 0 1 37.0176 54.0731)" fill="#9A9A9A"/>
<rect width="17.3458" height="17.3458" transform="matrix(0.866025 0.5 -0.866025 0.5 20.0576 -3)" fill="#E6E6E6"/>
<rect width="17.3458" height="8.67289" transform="matrix(0.866025 0.5 0 1 5.03516 5.67282)" fill="#C0C0C0"/>
<rect width="17.3458" height="8.67289" transform="matrix(0.866025 -0.5 0 1 20.0576 14.3458)" fill="#9A9A9A"/>
<rect width="5.57923" height="5.57923" transform="matrix(0.866025 0.5 -0.866025 0.5 4.83203 64.1448)" fill="#E6E6E6"/>
<rect width="5.57923" height="2.78961" transform="matrix(0.866025 0.5 0 1 0 66.9344)" fill="#C0C0C0"/>
<rect width="5.57923" height="2.78961" transform="matrix(0.866025 -0.5 0 1 4.83203 69.7241)" fill="#9A9A9A"/>
</g>
</svg>
