<svg width="247" height="118" viewBox="0 0 247 118" fill="none" xmlns="http://www.w3.org/2000/svg">
<path d="M242.956 19.3103H219.044C216.811 19.3103 215 21.0813 215 23.266V46.6553C215 48.8399 216.811 50.611 219.044 50.611H242.956C245.189 50.611 247 48.8399 247 46.6553V23.266C247 21.0813 245.189 19.3103 242.956 19.3103Z" fill="#47B2C0"/>
<mask id="mask0_779_9620" style="mask-type:alpha" maskUnits="userSpaceOnUse" x="219" y="22" width="24" height="25">
<rect x="219" y="22.3392" width="24" height="24.2328" fill="#D9D9D9"/>
</mask>
<g mask="url(#mask0_779_9620)">
<path d="M230.75 39.7566H232.25V35.7178H236.25V34.2033H232.25V30.1645H230.75V34.2033H226.75V35.7178H230.75V39.7566ZM231.502 44.5526C230.188 44.5526 228.953 44.3009 227.797 43.7974C226.64 43.2939 225.635 42.6106 224.78 41.7474C223.924 40.8843 223.247 39.8693 222.748 38.7025C222.249 37.5356 222 36.2889 222 34.9622C222 33.6355 222.249 32.3885 222.748 31.2212C223.247 30.0538 223.923 29.0384 224.778 28.1749C225.633 27.3113 226.638 26.6277 227.794 26.124C228.95 25.6203 230.184 25.3684 231.498 25.3684C232.812 25.3684 234.047 25.6202 235.203 26.1237C236.36 26.6272 237.365 27.3105 238.22 28.1736C239.076 29.0367 239.753 30.0517 240.252 31.2186C240.751 32.3854 241 33.6322 241 34.9588C241 36.2855 240.751 37.5325 240.252 38.6999C239.753 39.8672 239.077 40.8827 238.222 41.7462C237.367 42.6097 236.362 43.2933 235.206 43.797C234.05 44.3008 232.816 44.5526 231.502 44.5526ZM231.5 43.0381C233.733 43.0381 235.625 42.2556 237.175 40.6906C238.725 39.1255 239.5 37.2155 239.5 34.9605C239.5 32.7055 238.725 30.7955 237.175 29.2305C235.625 27.6654 233.733 26.8829 231.5 26.8829C229.267 26.8829 227.375 27.6654 225.825 29.2305C224.275 30.7955 223.5 32.7055 223.5 34.9605C223.5 37.2155 224.275 39.1255 225.825 40.6906C227.375 42.2556 229.267 43.0381 231.5 43.0381Z" fill="white"/>
</g>
<path d="M25.2215 102.419L30.4531 102.564L31.6682 58.7576L26.4366 58.6123L25.2215 102.419Z" fill="#DDDDDD"/>
<path d="M26.3888 60.4978L28.3779 60.5531L28.3881 60.185L26.399 60.1297L26.3888 60.4978Z" fill="#BCBCBC"/>
<path d="M26.3644 61.4673L28.3535 61.5226L28.3637 61.1545L26.3746 61.0992L26.3644 61.4673Z" fill="#BCBCBC"/>
<path d="M26.3302 62.4233L28.3193 62.4785L28.3295 62.1104L26.3404 62.0551L26.3302 62.4233Z" fill="#BCBCBC"/>
<path d="M26.2804 64.3487L28.2695 64.4039L28.2797 64.0358L26.2906 63.9806L26.2804 64.3487Z" fill="#BCBCBC"/>
<path d="M26.2492 65.3182L28.2383 65.3734L28.2485 65.0053L26.2594 64.95L26.2492 65.3182Z" fill="#BCBCBC"/>
<path d="M26.2248 66.2878L28.2139 66.343L28.2241 65.9749L26.235 65.9196L26.2248 66.2878Z" fill="#BCBCBC"/>
<path d="M26.1798 68.1995L28.1689 68.2548L28.1792 67.8866L26.19 67.8314L26.1798 68.1995Z" fill="#BCBCBC"/>
<path d="M26.1544 69.1827L28.1436 69.2379L28.1538 68.8698L26.1647 68.8145L26.1544 69.1827Z" fill="#BCBCBC"/>
<path d="M26.1212 70.1385L28.1104 70.1937L28.1206 69.8256L26.1314 69.7704L26.1212 70.1385Z" fill="#BCBCBC"/>
<path d="M26.0705 72.0776L28.0596 72.1328L28.0698 71.7647L26.0807 71.7094L26.0705 72.0776Z" fill="#BCBCBC"/>
<path d="M26.0402 73.0335L28.0293 73.0887L28.0395 72.7206L26.0504 72.6654L26.0402 73.0335Z" fill="#BCBCBC"/>
<path d="M26.0148 73.9895L28.0039 74.0448L28.0141 73.6767L26.025 73.6214L26.0148 73.9895Z" fill="#BCBCBC"/>
<path d="M25.9562 75.9284L27.9453 75.9836L27.9555 75.6155L25.9664 75.5603L25.9562 75.9284Z" fill="#BCBCBC"/>
<path d="M25.9455 76.8842L27.9346 76.9395L27.9448 76.5713L25.9557 76.5161L25.9455 76.8842Z" fill="#BCBCBC"/>
<path d="M25.9142 77.8537L27.9033 77.9089L27.9135 77.5408L25.9244 77.4856L25.9142 77.8537Z" fill="#BCBCBC"/>
<path d="M25.8615 79.7791L27.8506 79.8344L27.8608 79.4662L25.8717 79.411L25.8615 79.7791Z" fill="#BCBCBC"/>
<path d="M25.8341 80.7487L27.8232 80.804L27.8335 80.4358L25.8443 80.3806L25.8341 80.7487Z" fill="#BCBCBC"/>
<path d="M25.7921 81.7041L27.7812 81.7594L27.7915 81.3913L25.8023 81.336L25.7921 81.7041Z" fill="#BCBCBC"/>
<path d="M25.7365 83.6432L27.7256 83.6985L27.7358 83.3304L25.7467 83.2751L25.7365 83.6432Z" fill="#BCBCBC"/>
<path d="M25.7082 84.599L27.6973 84.6543L27.7075 84.2862L25.7184 84.2309L25.7082 84.599Z" fill="#BCBCBC"/>
<path d="M25.6945 85.555L27.6836 85.6102L27.6938 85.2421L25.7047 85.1869L25.6945 85.555Z" fill="#BCBCBC"/>
<path d="M25.6388 87.4941L27.6279 87.5493L27.6381 87.1812L25.649 87.1259L25.6388 87.4941Z" fill="#BCBCBC"/>
<path d="M25.6105 88.4499L27.5996 88.5051L27.6098 88.137L25.6207 88.0817L25.6105 88.4499Z" fill="#BCBCBC"/>
<path d="M25.5822 89.4058L27.5713 89.4611L27.5815 89.0929L25.5924 89.0377L25.5822 89.4058Z" fill="#BCBCBC"/>
<path d="M25.5265 91.3449L27.5156 91.4001L27.5258 91.032L25.5367 90.9768L25.5265 91.3449Z" fill="#BCBCBC"/>
<path d="M25.4992 92.3007L27.4883 92.356L27.4985 91.9878L25.5094 91.9326L25.4992 92.3007Z" fill="#BCBCBC"/>
<path d="M25.4875 93.2748L27.4766 93.3304L27.4868 92.9623L25.4977 92.9067L25.4875 93.2748Z" fill="#BCBCBC"/>
<path d="M25.4318 95.1956L27.4209 95.2509L27.4311 94.8827L25.442 94.8275L25.4318 95.1956Z" fill="#BCBCBC"/>
<path d="M25.4015 96.1651L27.3906 96.2203L27.4008 95.8522L25.4117 95.797L25.4015 96.1651Z" fill="#BCBCBC"/>
<path d="M25.3761 97.1347L27.3652 97.1899L27.3754 96.8218L25.3863 96.7666L25.3761 97.1347Z" fill="#BCBCBC"/>
<path d="M25.3175 99.06L27.3066 99.1152L27.3169 98.7471L25.3277 98.6919L25.3175 99.06Z" fill="#BCBCBC"/>
<path d="M25.2892 100.016L27.2783 100.071L27.2885 99.7031L25.2994 99.6478L25.2892 100.016Z" fill="#BCBCBC"/>
<path d="M25.2648 100.972L27.2539 101.027L27.2641 100.659L25.275 100.604L25.2648 100.972Z" fill="#BCBCBC"/>
<path d="M25.3364 98.092L28.252 98.173L28.2622 97.8048L25.3466 97.7239L25.3364 98.092Z" fill="#BCBCBC"/>
<path d="M25.2358 101.956L28.1514 102.037L28.1616 101.669L25.246 101.588L25.2358 101.956Z" fill="#BCBCBC"/>
<path d="M26.4057 59.5299L29.3213 59.6108L29.3315 59.2427L26.416 59.1617L26.4057 59.5299Z" fill="#BCBCBC"/>
<path d="M26.311 63.3944L29.2266 63.4753L29.2368 63.1072L26.3212 63.0262L26.311 63.3944Z" fill="#BCBCBC"/>
<path d="M26.1987 67.2451L29.1143 67.326L29.1245 66.9579L26.2089 66.8769L26.1987 67.2451Z" fill="#BCBCBC"/>
<path d="M26.0845 71.0959L29 71.1769L29.0102 70.8088L26.0947 70.7278L26.0845 71.0959Z" fill="#BCBCBC"/>
<path d="M25.9897 74.9604L28.9053 75.0414L28.9155 74.6733L25.9999 74.5923L25.9897 74.9604Z" fill="#BCBCBC"/>
<path d="M25.8755 78.8111L28.791 78.8921L28.8012 78.524L25.8857 78.443L25.8755 78.8111Z" fill="#BCBCBC"/>
<path d="M25.7641 82.6616L28.6797 82.7426L28.6899 82.3744L25.7744 82.2934L25.7641 82.6616Z" fill="#BCBCBC"/>
<path d="M25.6548 86.5259L28.5703 86.6069L28.5805 86.2388L25.665 86.1578L25.6548 86.5259Z" fill="#BCBCBC"/>
<path d="M25.5542 90.3768L28.4697 90.4578L28.4799 90.0896L25.5644 90.0087L25.5542 90.3768Z" fill="#BCBCBC"/>
<path d="M25.4458 94.2413L28.3613 94.3223L28.3715 93.9541L25.456 93.8732L25.4458 94.2413Z" fill="#BCBCBC"/>
<path d="M27.9481 100.524L30.1279 100.875L35.103 69.9993L32.9232 69.6475L27.9481 100.524Z" fill="#FFD41D"/>
<path d="M32.9375 69.6404L35.1172 69.9926L35.1823 69.5886L33.0026 69.2365L32.9375 69.6404Z" fill="#99735E"/>
<path d="M33.002 69.2351L35.1826 69.5897L35.2235 69.3169C35.3189 68.7168 34.9101 68.144 34.3104 68.0485C33.7107 67.953 33.1382 68.3622 33.0428 68.9623L33.002 69.2351Z" fill="#FFD41D"/>
<path d="M27.96 100.51L28.2871 101.792L28.6414 103.183L29.4183 101.983L30.127 100.865L27.96 100.51Z" fill="#E59470"/>
<path d="M28.2861 101.792L28.6405 103.183L29.4174 101.969C29.2538 101.86 29.063 101.792 28.8586 101.751C28.6678 101.724 28.4633 101.738 28.2861 101.779V101.792Z" fill="#FFD41D"/>
<path d="M27.9531 100.511L29.043 100.687L34.0234 69.8116L32.9335 69.6356L27.9531 100.511Z" fill="#F7A616"/>
<path d="M28.4883 100.602L29.5781 100.778L34.5586 69.9031L33.4687 69.727L28.4883 100.602Z" fill="#FFB83B"/>
<path d="M17.4479 68.9792L15.2686 69.3336L20.2813 100.204L22.4607 99.8492L17.4479 68.9792Z" fill="#FFD41D"/>
<path d="M22.4792 99.8519L20.2998 100.206L20.3654 100.61L22.5447 100.256L22.4792 99.8519Z" fill="#99735E"/>
<path d="M22.5332 100.251L20.3525 100.606L20.3934 100.878C20.4888 101.479 21.0613 101.888 21.661 101.792C22.2606 101.697 22.6695 101.124 22.5741 100.524L22.5332 100.251Z" fill="#E8613D"/>
<path d="M17.4522 68.976L16.7435 67.8712L15.9666 66.6573L15.6123 68.0486L15.2852 69.3307L17.4522 68.976Z" fill="#E59470"/>
<path d="M16.7426 67.8712L15.9657 66.6573L15.6113 68.0486C15.8021 68.1031 16.0066 68.1168 16.1974 68.0758C16.3882 68.0486 16.579 67.9667 16.7426 67.8712Z" fill="#FFD41D"/>
<path d="M17.4608 68.9668L16.3711 69.144L21.3838 100.014L22.4735 99.8369L17.4608 68.9668Z" fill="#F7A616"/>
<path d="M16.911 69.0667L15.8213 69.2439L20.834 100.114L21.9237 99.9367L16.911 69.0667Z" fill="#FFB83B"/>
<path d="M25.4743 64.0967L23.2695 64.2155L24.9487 95.4452L27.1535 95.3265L25.4743 64.0967Z" fill="#9FBDF9"/>
<path d="M27.1628 95.3216L24.958 95.4403L24.98 95.8489L27.1847 95.7302L27.1628 95.3216Z" fill="#99735E"/>
<path d="M27.1826 95.7363L24.9883 95.8591V96.1319C25.0292 96.7456 25.5607 97.2094 26.1604 97.1684C26.7737 97.1412 27.2371 96.6229 27.1962 96.0091V95.7363H27.1826Z" fill="#E8613D"/>
<path d="M25.4804 64.1068L24.8944 62.9338L24.2538 61.6381L23.7495 62.9884L23.2861 64.2159L25.4804 64.1068Z" fill="#E59470"/>
<path d="M24.8919 62.9338L24.2514 61.6381L23.7471 62.9884C23.9243 63.0565 24.1287 63.0975 24.3331 63.0838C24.5376 63.0838 24.7147 63.0156 24.8919 62.9338Z" fill="#92B6EA"/>
<path d="M25.4823 64.1006L24.3799 64.1602L26.0645 95.3896L27.1669 95.3301L25.4823 64.1006Z" fill="#82A5D8"/>
<path d="M24.9412 64.1261L23.8389 64.1854L25.518 95.4152L26.6204 95.3558L24.9412 64.1261Z" fill="#92B6EA"/>
<path d="M22.0109 66.6518L18.4932 67.0797L19.6558 76.6523L23.1735 76.2244L22.0109 66.6518Z" fill="#362D70"/>
<path d="M23.174 76.2251L19.6562 76.653L22.3318 98.682L25.8495 98.2541L23.174 76.2251Z" fill="#C7D6E2"/>
<path d="M23.2443 76.8033L19.7266 77.2312L19.8515 78.2602L23.3693 77.8323L23.2443 76.8033Z" fill="#362D70"/>
<g style="mix-blend-mode:soft-light">
<path d="M19.6673 66.9369L18.4902 67.0801L22.3284 98.6817L23.5055 98.5385L19.6673 66.9369Z" fill="#C7D6E2"/>
</g>
<path d="M33.6596 85.3431L31.7243 105.925L31.588 107.521H19.6351L17.5498 85.3431H33.6596Z" fill="#A3A0D8"/>
<path d="M33.6628 85.3431L31.7274 105.925H21.7508L19.8154 85.3431H33.6628Z" fill="#BFB8F4"/>
<path d="M198.45 97.7686C198.45 97.7686 192.317 94.1815 190.981 87.1163C190.981 87.1163 196.76 88.3166 199.65 97.7686" fill="#D6D4FF"/>
<path d="M200.876 97.7686C200.876 97.7686 207.009 94.1815 208.345 87.1163C208.345 87.1163 202.566 88.3166 199.677 97.7686" fill="#D6D4FF"/>
<path d="M199.027 97.1958C199.027 97.1958 194.597 91.631 195.906 84.5658C195.906 84.5658 200.867 87.771 200.158 97.6323" fill="#D6D4FF"/>
<path d="M200.452 97.2094C200.452 97.2094 204.745 91.5355 203.273 84.5112C203.273 84.5112 198.394 87.8392 199.334 97.6732" fill="#D6D4FF"/>
<path d="M206.207 96.3365H192.837V107.521H206.207V96.3365Z" fill="#594A5F"/>
<path d="M206.206 96.3365H203.575V107.521H206.206V96.3365Z" fill="#4C4051"/>
<path d="M89.514 2.88832C87.3445 1.52878 84.6542 1.24039 82.7884 1.19919C83.3091 0.74601 84.2637 0.622415 84.2637 0.622415C83.0922 0.375225 80.4453 1.32279 80.4453 1.32279C64.6509 -5.63974 60.4854 16.8958 60.442 22.1692C60.4023 26.9939 63.6298 29.3723 56.2861 40.5627C54.8038 42.8213 53.5342 45.2637 52.7967 47.8627C44.6261 76.6596 52.1862 72.5901 52.1862 72.5901C58.8434 81.1853 58.3592 76.963 58.3592 76.963C58.2291 72.6784 76.0628 49.9369 87.3445 43.9219C90.2517 40.42 91.6402 33.9931 91.727 33.4575C90.9026 38.5661 89.7744 41.4088 88.8198 42.9743C98.5394 35.641 95.2417 6.51378 89.514 2.88832Z" fill="#3C4C56"/>
<path d="M97.8628 108.076C98.1836 111.472 99.285 113.042 96.1412 113.205C96.1412 113.205 88.6584 108.942 75.4095 113.205C65.6459 112.986 58.8305 115.099 60.1243 113.205C62.8511 93.0282 58.9288 82.6626 58.9288 82.6626C58.4156 66.7895 53.2227 61.7182 54.0995 58.4029C54.4203 57.1985 57.5708 53.4199 60.7253 51.5254C63.8798 49.6309 67.6117 47.7229 70.2316 46.4373L79.5993 50.4604L84.6994 45C88.5918 46.8539 96.1733 51.5795 98.7824 54.8813C102.161 59.1575 97.4885 62.5811 96.986 72.2159C96.7079 77.4799 97.6382 105.437 97.8842 108.076H97.8628Z" fill="#47B2C0"/>
<path d="M111.657 109.048H111.63C103.97 108.107 99.1044 76.9686 99.3497 68.3076L107.963 56.1959C107.963 56.1959 111.044 63.8749 114.287 95.3407C115.596 108.053 116.863 109.048 111.684 109.048H111.657Z" fill="#47B2C0"/>
<path d="M114.261 95.3544C118.39 95.9273 138.493 99.9509 138.493 99.9509C138.493 99.9509 138.834 105.679 137.648 107.384C137.648 107.384 111.289 107.616 107.569 107.302C103.834 106.989 100.004 97.3321 98.5732 90.2124" fill="#47B2C0"/>
<path d="M100.32 62.0609C100.32 62.0609 100.988 64.5296 101.847 68.2668C102.269 70.1354 102.719 72.3313 103.155 74.6909C103.591 77.0505 104.014 79.5738 104.15 82.1789C104.259 84.7567 104.15 87.3209 104.027 89.7078C103.918 92.0947 103.809 94.3179 103.728 96.2274C103.673 98.1369 103.646 99.7191 103.7 100.837C103.755 101.956 103.823 102.583 103.823 102.583C103.823 102.583 103.782 102.433 103.714 102.133C103.632 101.847 103.55 101.41 103.469 100.851C103.292 99.7463 103.128 98.1369 103.087 96.2138C103.005 94.2906 103.046 92.0538 103.128 89.6532C103.155 88.453 103.196 87.2254 103.223 85.9706C103.264 84.7295 103.305 83.4474 103.278 82.1925C103.169 79.6829 102.787 77.1596 102.46 74.8C102.119 72.4404 101.724 70.2445 101.411 68.3486C100.756 64.5705 100.32 62.0609 100.32 62.0609Z" fill="#727377"/>
<path d="M78.3747 50.0448C78.3747 50.0448 75.2679 75.3266 75.5139 79.1637C75.7599 83.0008 78.812 90.6301 79.8233 90.9888C80.8346 91.3474 83.0304 83.0366 83.4677 79.5761C83.905 76.1155 79.7596 50 79.7596 50" fill="#F3FEFF"/>
<path d="M94.8093 101.806C94.046 101.492 88.9623 100.292 87.8311 100.469C86.6999 100.646 83.2244 100.483 82.0523 100.483C80.8802 100.483 77.064 100.005 77.064 100.005L77.4865 105.775C78.6177 105.666 80.1169 106.252 80.9347 106.361C81.7524 106.47 84.4919 106.484 86.1819 105.638C86.2773 105.584 86.3591 105.529 86.4545 105.488C87.136 106.089 87.9946 106.675 88.9351 106.73C88.9351 106.73 89.671 106.661 89.6029 106.361C89.562 106.211 89.085 105.461 88.5943 104.738C89.3167 105.475 90.5024 106.675 91.8654 106.743C91.8654 106.743 92.6013 106.675 92.5332 106.375C92.4923 106.198 91.7836 105.134 91.2112 104.288C91.2112 104.288 91.2248 104.288 91.2384 104.302C91.8381 104.834 93.2692 106.648 94.9592 106.743C94.9592 106.743 95.6952 106.675 95.627 106.375C95.5998 106.266 95.3272 105.816 94.9728 105.297C95.409 105.625 95.9269 105.979 96.5675 106.293C98.3938 107.193 99.4296 106.511 99.4296 106.293C99.4296 106.075 95.5589 102.147 94.782 101.833L94.8093 101.806Z" fill="#FBAB99"/>
<path d="M81.21 105.052H139.625C139.966 105.052 140.238 105.325 140.238 105.666V107.521H80.5967V105.666C80.5967 105.325 80.8693 105.052 81.21 105.052Z" fill="#3E5E9E"/>
<path d="M55.842 56C49.5054 62.7914 47.8091 80.7233 49.7718 95.5819C50.5709 101.646 50.2484 109 59.4589 109C66.5946 109 88.0576 108.671 88.0576 108.671C89.3053 105.995 88.9549 101.056 88.9549 101.056L62.4603 98.1016C62.4603 98.1016 57.9314 78.3686 59.4589 72.9538" fill="#47B2C0"/>
<path d="M61.5899 69C62.0647 73.2887 62.3237 77.6047 62.4532 81.9207C62.5396 84.0718 62.5108 86.2366 62.4676 88.4014C62.4101 90.5662 62.3094 92.731 62.0791 94.8958L61.6763 94.3648L70.3381 96.1484L79 98C76.0504 97.7685 73.1151 97.3465 70.1943 96.8836C68.7266 96.6793 67.2734 96.3934 65.8201 96.1347L61.4604 95.3178L61 95.2362L61.0576 94.7869C61.3165 92.6629 61.446 90.5253 61.5324 88.3878C61.6331 86.2366 61.6187 84.0991 61.6619 81.9479C61.705 77.6455 61.6331 73.3432 61.5899 69.0272V69Z" fill="#727377"/>
<path d="M62.634 95.3648C62.634 95.3648 61.4891 95.1603 60.3306 95.0102C59.1721 94.8602 58 94.8056 58 94.8056C58 94.8056 59.1585 94.6147 60.3442 94.5192C61.5164 94.4237 62.7157 94.3828 62.7157 94.3828L62.634 95.3648Z" fill="#727377"/>
<path d="M8.30084 113.808H212.942C214.418 113.808 215.627 112.404 215.627 110.658C215.627 108.926 214.43 107.507 212.942 107.507H8.30084C6.81271 107.521 5.61523 108.926 5.61523 110.671C5.61523 112.404 6.81271 113.822 8.30084 113.822V113.808Z" fill="#9FBDF9"/>
<path d="M215.629 110.671C215.629 112.403 214.432 113.822 212.944 113.822H8.30288C7.55882 113.822 6.88451 113.467 6.40785 112.908C5.91956 112.335 5.62891 111.544 5.62891 110.685H215.641L215.629 110.671Z" fill="#8FB2EA"/>
<path d="M75.6291 4.01421C69.1412 4.4692 63.9509 9.79434 63.6307 16.2991C63.5296 18.4393 63.9509 20.4615 64.7597 22.2646C66.5629 26.764 68.0627 30.3871 69.9164 33.016C71.7869 35.6786 72.6632 38.9309 72.2082 42.1665L71.7532 45.4357C79.3028 49.1599 82.5888 46.4299 82.5888 46.4299L82.5383 37.8524C90.6777 36.8413 89.5149 21.8096 89.498 17.3776H89.4812C89.4812 17.2091 89.498 17.0406 89.498 16.872C89.4643 9.4236 83.1618 3.47495 75.6291 4.01421Z" fill="#FFBABA"/>
<path d="M75.7573 17.6264C74.2199 19.2159 72.8809 20.9997 71.5418 22.7835C70.1201 24.6732 68.6654 26.6689 68.3017 29.0532C66.351 27.393 65.1276 24.9558 64.1192 22.5362C63.6398 21.4059 63.1935 20.2579 63.0612 19.0216C62.8628 17.2908 63.3092 15.5424 63.739 13.8645C64.3011 11.6922 64.8962 9.43158 66.3344 7.77142C67.2767 6.67643 68.5331 5.91699 69.806 5.31651C72.7982 3.92127 76.1375 3.26782 79.3612 3.83297C82.5848 4.39813 85.6596 6.2349 87.5277 9.07836C89.9247 12.7519 90.1066 17.5381 90.1892 22.024C89.809 20.1519 88.6849 18.5624 87.5938 17.0436C86.8829 16.0545 86.1556 15.0478 85.1802 14.3591C83.5271 13.1934 83.0477 13.423 80.1381 11.2154C79.3281 13.9882 77.675 15.6483 75.7573 17.6264Z" fill="#3C4C56"/>
<path d="M69.4863 24.7106C69.2788 24.1185 68.9437 23.6685 68.5287 23.4317C67.6829 22.9344 66.1827 22.3897 65.1613 23.9291C63.6611 26.1789 66.7094 32.076 69.6938 29.1156C69.7097 29.1156 70.5556 27.8368 69.4863 24.7106Z" fill="#FFBABA"/>
<path d="M78.5199 46.0869C78.5199 46.0869 77.7368 48.0273 77.3844 50.1141C77.2278 50.3338 69.9578 48.906 68 47.5147C68 47.5147 69.4618 44.3905 70.1014 44C70.1014 44 73.1556 45.3302 78.5199 46.0869Z" fill="#2D9BAA"/>
<path d="M79.3975 46.1803C79.3975 46.1803 80.7856 48.8892 81.0737 50.1366C81.7284 50.1492 86.2463 47.3773 86.4035 47.2387C86.5606 47.1001 84.1249 43.9502 83.7975 44.0006C83.6665 44.2778 82.1213 45.122 79.4105 46.1803H79.3975Z" fill="#2D9BAA"/>
<path d="M77.6716 46.0437C78.1973 45.7089 79.6191 45.661 80.1687 45.9121C80.7184 46.1632 81.2799 47.6937 81.3755 48.1242C81.4711 48.5547 80.4794 50.0493 80.0493 50.5874C79.3443 50.7667 78.1853 50.683 78.1853 50.683C78.1853 50.683 76.9427 49.3319 76.7754 48.0405C76.6918 47.4068 77.2175 46.3426 77.6716 46.0437Z" fill="#F3FEFF"/>
<path d="M74.5 34C74.5 34 78.132 38.7773 82.4276 41C82.3552 39.4518 82.4276 37.8705 82.5 36.7204L74.5 34Z" fill="#FFA8A8"/>
<path d="M177.915 94.9727H89.8974C88.7526 94.9727 87.8667 93.9634 88.0166 92.8313L95.758 33.6504C95.8807 32.7092 96.6848 32 97.6388 32H185.657C186.802 32 187.687 33.0093 187.538 34.1414L179.796 93.3223C179.673 94.2635 178.869 94.9727 177.915 94.9727Z" fill="#ADADAD"/>
<path d="M181.214 94.9727H93.1963C92.0514 94.9727 91.1655 93.9634 91.3154 92.8313L99.0568 33.6504C99.1795 32.7092 99.9836 32 100.938 32H188.956C190.1 32 190.986 33.0093 190.836 34.1414L183.095 93.3223C182.972 94.2635 182.168 94.9727 181.214 94.9727Z" fill="#B3BECC"/>
<path d="M141.512 108.244H125.812L133.866 46.6623C133.975 45.8576 134.657 45.2574 135.461 45.2574H147.918C148.886 45.2574 149.649 46.1167 149.513 47.0851L141.512 108.244Z" fill="#ADADAD"/>
<path d="M143.597 108.244H127.896L135.951 46.6623C136.06 45.8576 136.742 45.2574 137.546 45.2574H150.003C150.971 45.2574 151.734 46.1167 151.598 47.0851L143.597 108.244Z" fill="#C7CAD0"/>
<path d="M111.034 105.53H158.6C159.363 105.53 159.99 106.157 159.99 106.921V108.244H109.657V106.921C109.657 106.157 110.284 105.53 111.047 105.53H111.034Z" fill="#5E83CC"/>
<g filter="url(#filter0_d_779_9620)">
<path d="M142.638 60.2798H143.151C144.981 60.2798 146.477 58.7815 146.477 56.948V56.4343C146.477 54.6008 144.981 53.1025 143.151 53.1025H142.638C140.808 53.1025 139.312 54.6008 139.312 56.4343V56.948C139.312 58.7815 140.808 60.2798 142.638 60.2798ZM139.989 56.4343C139.989 54.9718 141.178 53.7803 142.638 53.7803H143.151C144.611 53.7803 145.8 54.9718 145.8 56.4343V56.948C145.8 58.4105 144.611 59.602 143.151 59.602H142.638C141.178 59.602 139.989 58.4105 139.989 56.948V56.4343Z" fill="white"/>
</g>
<defs>
<filter id="filter0_d_779_9620" x="135.312" y="53.1025" width="15.1646" height="15.1772" filterUnits="userSpaceOnUse" color-interpolation-filters="sRGB">
<feFlood flood-opacity="0" result="BackgroundImageFix"/>
<feColorMatrix in="SourceAlpha" type="matrix" values="0 0 0 0 0 0 0 0 0 0 0 0 0 0 0 0 0 0 127 0" result="hardAlpha"/>
<feOffset dy="4"/>
<feGaussianBlur stdDeviation="2"/>
<feComposite in2="hardAlpha" operator="out"/>
<feColorMatrix type="matrix" values="0 0 0 0 0 0 0 0 0 0 0 0 0 0 0 0 0 0 0.25 0"/>
<feBlend mode="normal" in2="BackgroundImageFix" result="effect1_dropShadow_779_9620"/>
<feBlend mode="normal" in="SourceGraphic" in2="effect1_dropShadow_779_9620" result="shape"/>
</filter>
</defs>
</svg>
