<svg width="247" height="121" viewBox="0 0 247 121" fill="none" xmlns="http://www.w3.org/2000/svg">
<path d="M242.956 22H219.044C216.811 22 215 23.754 215 25.9177V49.0823C215 51.246 216.811 53 219.044 53H242.956C245.189 53 247 51.246 247 49.0823V25.9177C247 23.754 245.189 22 242.956 22Z" fill="#47B2C0"/>
<mask id="mask0_1_4999" style="mask-type:alpha" maskUnits="userSpaceOnUse" x="219" y="25" width="24" height="24">
<rect x="219" y="25.0001" width="24" height="24" fill="#D9D9D9"/>
</mask>
<g mask="url(#mask0_1_4999)">
<path d="M230.75 42.25H232.25V38.25H236.25V36.75H232.25V32.75H230.75V36.75H226.75V38.25H230.75V42.25ZM231.502 47C230.188 47 228.953 46.7506 227.797 46.252C226.64 45.7533 225.635 45.0765 224.78 44.2217C223.924 43.3669 223.247 42.3616 222.748 41.206C222.249 40.0504 222 38.8156 222 37.5017C222 36.1877 222.249 34.9527 222.748 33.7966C223.247 32.6404 223.923 31.6347 224.778 30.7795C225.633 29.9243 226.638 29.2472 227.794 28.7483C228.95 28.2494 230.184 28 231.498 28C232.812 28 234.047 28.2493 235.203 28.748C236.36 29.2467 237.365 29.9234 238.22 30.7783C239.076 31.6331 239.753 32.6383 240.252 33.794C240.751 34.9496 241 36.1844 241 37.4983C241 38.8122 240.751 40.0473 240.252 41.2034C239.753 42.3596 239.077 43.3652 238.222 44.2205C237.367 45.0757 236.362 45.7527 235.206 46.2516C234.05 46.7505 232.816 47 231.502 47ZM231.5 45.5C233.733 45.5 235.625 44.725 237.175 43.175C238.725 41.625 239.5 39.7333 239.5 37.5C239.5 35.2666 238.725 33.375 237.175 31.825C235.625 30.275 233.733 29.5 231.5 29.5C229.267 29.5 227.375 30.275 225.825 31.825C224.275 33.375 223.5 35.2666 223.5 37.5C223.5 39.7333 224.275 41.625 225.825 43.175C227.375 44.725 229.267 45.5 231.5 45.5Z" fill="white"/>
</g>
<path d="M68.0042 49.855C75.1186 51.6691 85.4496 48.8866 85.4496 48.8866C84.3593 48.1501 83.9504 45.6814 83.8414 43.1172C83.7596 41.2077 83.8414 39.2573 83.9231 37.8388C83.9913 36.6522 84.0867 35.8611 84.0867 35.8611L69.149 26.3545C70.6346 35.3837 70.3484 42.9808 69.4761 46.9635C69.0945 48.7502 68.0042 49.855 68.0042 49.855Z" fill="#FBAB99"/>
<path d="M74.8889 34.4698C74.8889 34.4698 78.9913 40.362 83.8433 43.1035C83.7616 41.194 83.8434 39.2436 83.9251 37.8251L74.8889 34.4698Z" fill="#EF998B"/>
<path d="M95.7407 15.402C95.7407 15.402 97.8259 37.1567 89.8937 41.9851C86.3228 44.1537 74.6289 34.2516 74.6289 34.2516C74.6289 34.2516 66.9693 27.6365 68.2913 19.9712C70.7718 5.48627 93.5055 0.998936 95.7407 15.4157V15.402Z" fill="#FBAB99"/>
<path d="M99.5855 7.12304C99.3674 6.973 97.5138 8.37785 91.367 3.52226C88.8728 1.5582 84.3752 0.562527 79.2915 1.81734C74.7802 2.92213 73.4309 6.57746 73.4309 6.57746C73.4309 6.57746 69.8873 5.8273 67.066 9.4008C60.8238 17.3389 69.0014 35.4792 70.0644 35.752C71.1275 36.0247 68.7288 23.8721 73.8125 24.0221C76.8382 24.104 77.7922 29.3415 78.2693 28.8641C78.7599 28.3731 78.2284 22.3309 78.719 20.9942C78.8417 20.6532 79.714 19.9985 80.6544 20.1213C83.0123 20.435 82.5352 16.4523 84.4842 15.8658C85.7109 15.4976 89.4725 15.593 91.994 16.2614C101.93 18.8938 103.034 9.52355 99.5991 7.13668L99.5855 7.12304Z" fill="#504F52"/>
<path d="M73.3763 25.9453C73.7989 25.7543 74.494 25.6998 75.0119 26.7773C75.5434 27.8684 75.0936 27.7866 74.9846 28.4549C74.8756 29.1232 75.5161 29.096 75.6933 29.6824C75.8841 30.2553 75.6524 31.6192 74.4667 31.3737C73.2673 31.1146 72.9947 29.3005 72.8584 28.755C72.7221 28.2094 72.4904 26.3545 73.3763 25.9589V25.9453Z" fill="#EF998B"/>
<path d="M101.151 110.848C101.559 114.272 102.963 115.854 98.9562 116.017C98.9562 116.017 89.4189 111.721 72.5322 116.017C60.0877 115.797 51.4009 117.927 53.0501 116.017C56.5255 95.6811 51.5263 85.2334 51.5263 85.2334C50.8721 69.2345 44.9843 62.2102 46.1019 58.8686C46.5107 57.6547 49.7954 55.7589 53.816 53.8494C57.8367 51.9399 62.5933 50.0167 65.9325 48.721L77.4628 43.7699L87.0442 47.5753C92.0053 49.4439 98.9971 53.9039 102.323 57.2319C106.629 61.5419 100.673 64.9927 100.033 74.7039C99.6786 80.0096 100.864 108.188 101.178 110.848H101.151Z" fill="#47B2C0"/>
<path d="M111.657 112.048H111.63C103.97 111.107 99.1044 79.9686 99.3497 71.3076L107.963 59.1959C107.963 59.1959 111.044 66.8749 114.287 98.3407C115.596 111.053 116.863 112.048 111.684 112.048H111.657Z" fill="#47B2C0"/>
<path d="M114.261 98.3544C118.39 98.9273 138.493 102.951 138.493 102.951C138.493 102.951 138.834 108.679 137.648 110.384C137.648 110.384 111.289 110.616 107.569 110.302C103.834 109.989 100.004 100.332 98.5732 93.2124" fill="#47B2C0"/>
<path d="M97.3203 65.0609C97.3203 65.0609 97.9882 67.5296 98.8468 71.2667C99.2693 73.1353 99.7191 75.3313 100.155 77.6909C100.591 80.0505 101.014 82.5737 101.15 85.1788C101.259 87.7567 101.15 90.3209 101.027 92.7077C100.918 95.0946 100.809 97.3178 100.728 99.2273C100.673 101.137 100.646 102.719 100.7 103.837C100.755 104.956 100.823 105.583 100.823 105.583C100.823 105.583 100.782 105.433 100.714 105.133C100.632 104.847 100.55 104.41 100.469 103.851C100.292 102.746 100.128 101.137 100.087 99.2137C100.005 97.2906 100.046 95.0537 100.128 92.6532C100.155 91.4529 100.196 90.2254 100.223 88.9706C100.264 87.7294 100.305 86.4473 100.278 85.1925C100.169 82.6828 99.7872 80.1596 99.4601 77.8C99.1194 75.4404 98.7241 73.2444 98.4107 71.3486C97.7565 67.5705 97.3203 65.0609 97.3203 65.0609Z" fill="#727377"/>
<path d="M66.9658 48.2572C66.9658 48.2572 69.201 46.1022 69.4736 44.0018C69.4736 44.0018 72.7583 46.7842 78.2645 46.3341C78.2645 46.3341 78.3326 47.8344 78.8097 47.8753C79.2867 47.9162 79.3685 46.2795 79.3685 46.2795C79.3685 46.2795 82.7758 45.8567 83.9343 43.9199C83.9343 43.9199 85.2563 47.0979 87.0145 47.5616C87.0145 47.5616 84.6157 48.721 79.2322 49.4575C73.8486 50.194 66.9795 48.2572 66.9795 48.2572H66.9658Z" fill="#47B2C0"/>
<path d="M78.0064 51.8034C78.0064 51.8034 73.3588 90.2663 73.7268 96.1039C74.0948 101.942 78.6606 113.549 80.1735 114.094C81.6863 114.64 84.971 101.996 85.6252 96.7313C86.2794 91.4666 80.0781 51.7352 80.0781 51.7352" fill="#F3FEFF"/>
<path d="M77.4307 46.7978C78.0304 46.4159 79.6523 46.3614 80.2792 46.6478C80.9062 46.9342 81.5468 48.68 81.6558 49.1711C81.7648 49.6621 80.6336 51.367 80.1429 51.9808C79.3388 52.1853 78.0168 52.0899 78.0168 52.0899C78.0168 52.0899 76.5993 50.5486 76.4085 49.0756C76.3131 48.3527 76.9128 47.1388 77.4307 46.7978Z" fill="#F3FEFF"/>
<path d="M94.8095 104.806C94.0463 104.492 88.9626 103.292 87.8313 103.469C86.7001 103.646 83.2246 103.483 82.0525 103.483C80.8804 103.483 77.0642 103.005 77.0642 103.005L77.4867 108.775C78.6179 108.666 80.1172 109.252 80.9349 109.361C81.7527 109.47 84.4922 109.484 86.1822 108.638C86.2776 108.584 86.3594 108.529 86.4548 108.488C87.1362 109.089 87.9949 109.675 88.9353 109.73C88.9353 109.73 89.6713 109.661 89.6031 109.361C89.5623 109.211 89.0852 108.461 88.5946 107.738C89.3169 108.475 90.5027 109.675 91.8656 109.743C91.8656 109.743 92.6016 109.675 92.5334 109.375C92.4925 109.198 91.7838 108.134 91.2114 107.288C91.2114 107.288 91.225 107.288 91.2386 107.302C91.8383 107.834 93.2694 109.648 94.9594 109.743C94.9594 109.743 95.6954 109.675 95.6273 109.375C95.6 109.266 95.3274 108.816 94.9731 108.297C95.4092 108.625 95.9271 108.979 96.5677 109.293C98.394 110.193 99.4298 109.511 99.4298 109.293C99.4298 109.075 95.5591 105.147 94.7823 104.833L94.8095 104.806Z" fill="#FBAB99"/>
<path d="M81.21 108.052H139.625C139.966 108.052 140.238 108.325 140.238 108.666V110.521H80.5967V108.666C80.5967 108.325 80.8693 108.052 81.21 108.052Z" fill="#3E5E9E"/>
<path d="M46.5657 58.1458C40.4053 64.8972 38.7561 82.7238 40.6642 97.4952C41.4411 103.524 41.1276 110.834 50.082 110.834C57.0193 110.834 77.8858 110.507 77.8858 110.507C79.0988 107.847 78.758 102.937 78.758 102.937L54.4707 98.2726C54.4707 98.2726 54.4707 77.6091 52.9851 72.6171" fill="#47B2C0"/>
<path d="M54.5012 72.4125C54.9509 76.7089 55.1963 81.0325 55.3189 85.3562C55.4007 87.5112 55.3735 89.6798 55.3326 91.8485C55.2781 94.0171 55.1826 96.1858 54.9646 98.3545L54.583 97.8225L62.7878 99.6093L70.9926 101.464C68.1986 101.232 65.4182 100.81 62.6515 100.346C61.2613 100.141 59.8848 99.8548 58.5082 99.5956L54.3785 98.7773L53.9424 98.6954L53.9969 98.2453C54.2422 96.1176 54.3649 93.9762 54.4467 91.8349C54.5421 89.6798 54.5284 87.5385 54.5693 85.3835C54.6102 81.0734 54.5421 76.7634 54.5012 72.4398V72.4125Z" fill="#727377"/>
<path d="M54.4435 98.7773C54.4435 98.7773 53.2987 98.5727 52.1402 98.4226C50.9817 98.2726 49.8096 98.218 49.8096 98.218C49.8096 98.218 50.9681 98.0271 52.1538 97.9316C53.3259 97.8361 54.5253 97.7952 54.5253 97.7952L54.4435 98.7773Z" fill="#727377"/>
<path d="M78.2655 46.3341C78.2655 46.3341 77.4477 48.5027 77.0797 50.8351C76.9162 51.0806 69.3247 49.4848 67.2803 47.9299C67.2803 47.9299 68.8068 44.4382 69.4746 44.0018C69.4746 44.0018 72.6638 45.4885 78.2655 46.3341Z" fill="#2D9BAA"/>
<path d="M79.3584 46.2796C79.3584 46.2796 80.8031 49.212 81.1029 50.5623C81.7844 50.5759 86.4865 47.5753 86.6501 47.4253C86.8136 47.2752 84.2786 43.8654 83.9378 43.92C83.8015 44.22 82.1933 45.1339 79.372 46.2796H79.3584Z" fill="#2D9BAA"/>
<path d="M8.30084 116.808H212.942C214.418 116.808 215.627 115.404 215.627 113.658C215.627 111.926 214.43 110.507 212.942 110.507H8.30084C6.81271 110.521 5.61523 111.926 5.61523 113.671C5.61523 115.404 6.81271 116.822 8.30084 116.822V116.808Z" fill="#9FBDF9"/>
<path d="M215.629 113.671C215.629 115.404 214.432 116.822 212.944 116.822H8.30288C7.55882 116.822 6.88451 116.467 6.40785 115.908C5.91956 115.335 5.62891 114.544 5.62891 113.685H215.641L215.629 113.671Z" fill="#8FB2EA"/>
<path d="M183.936 97.2497H95.9177C94.7728 97.2497 93.8869 96.2404 94.0368 95.1083L101.778 35.9273C101.901 34.9862 102.705 34.277 103.659 34.277H191.677C192.822 34.277 193.708 35.2863 193.558 36.4183L185.816 95.5993C185.694 96.5404 184.89 97.2497 183.936 97.2497Z" fill="#ADADAD"/>
<path d="M187.234 97.2497H99.2165C98.0717 97.2497 97.1858 96.2404 97.3357 95.1083L105.077 35.9273C105.2 34.9862 106.004 34.277 106.958 34.277H194.976C196.121 34.277 197.007 35.2863 196.857 36.4183L189.115 95.5993C188.993 96.5404 188.188 97.2497 187.234 97.2497Z" fill="#B3BECC"/>
<path d="M147.533 110.521H131.832L139.887 48.9393C139.996 48.1346 140.677 47.5344 141.482 47.5344H153.939C154.906 47.5344 155.67 48.3937 155.533 49.3621L147.533 110.521Z" fill="#ADADAD"/>
<path d="M149.618 110.521H133.917L141.972 48.9393C142.081 48.1346 142.762 47.5344 143.566 47.5344H156.023C156.991 47.5344 157.754 48.3937 157.618 49.3621L149.618 110.521Z" fill="#C7CAD0"/>
<path d="M117.054 107.807H164.62C165.383 107.807 166.01 108.434 166.01 109.198V110.521H115.677V109.198C115.677 108.434 116.304 107.807 117.068 107.807H117.054Z" fill="#5E83CC"/>
<path d="M25.2217 105.419L30.4534 105.564L31.6684 61.7576L26.4368 61.6123L25.2217 105.419Z" fill="#DDDDDD"/>
<path d="M26.3893 63.4978L28.3784 63.5531L28.3886 63.185L26.3995 63.1297L26.3893 63.4978Z" fill="#BCBCBC"/>
<path d="M26.3646 64.4673L28.3538 64.5226L28.364 64.1545L26.3749 64.0992L26.3646 64.4673Z" fill="#BCBCBC"/>
<path d="M26.3307 65.4232L28.3198 65.4785L28.33 65.1103L26.3409 65.0551L26.3307 65.4232Z" fill="#BCBCBC"/>
<path d="M26.2804 67.3486L28.2695 67.4039L28.2797 67.0357L26.2906 66.9805L26.2804 67.3486Z" fill="#BCBCBC"/>
<path d="M26.2494 68.3181L28.2385 68.3734L28.2487 68.0052L26.2596 67.95L26.2494 68.3181Z" fill="#BCBCBC"/>
<path d="M26.225 69.2876L28.2141 69.3429L28.2243 68.9748L26.2352 68.9195L26.225 69.2876Z" fill="#BCBCBC"/>
<path d="M26.1801 71.1994L28.1692 71.2547L28.1794 70.8866L26.1903 70.8313L26.1801 71.1994Z" fill="#BCBCBC"/>
<path d="M26.1549 72.1826L28.144 72.2379L28.1543 71.8697L26.1651 71.8145L26.1549 72.1826Z" fill="#BCBCBC"/>
<path d="M26.1215 73.1385L28.1106 73.1937L28.1208 72.8256L26.1317 72.7704L26.1215 73.1385Z" fill="#BCBCBC"/>
<path d="M26.0707 75.0775L28.0598 75.1328L28.07 74.7646L26.0809 74.7094L26.0707 75.0775Z" fill="#BCBCBC"/>
<path d="M26.0404 76.0334L28.0295 76.0886L28.0398 75.7205L26.0506 75.6652L26.0404 76.0334Z" fill="#BCBCBC"/>
<path d="M26.015 76.9892L28.0042 77.0445L28.0144 76.6764L26.0253 76.6211L26.015 76.9892Z" fill="#BCBCBC"/>
<path d="M25.9564 78.9283L27.9456 78.9835L27.9558 78.6154L25.9667 78.5601L25.9564 78.9283Z" fill="#BCBCBC"/>
<path d="M25.9455 79.8842L27.9346 79.9395L27.9448 79.5713L25.9557 79.5161L25.9455 79.8842Z" fill="#BCBCBC"/>
<path d="M25.9145 80.8537L27.9036 80.9089L27.9138 80.5408L25.9247 80.4856L25.9145 80.8537Z" fill="#BCBCBC"/>
<path d="M25.862 82.7791L27.8511 82.8344L27.8613 82.4662L25.8722 82.411L25.862 82.7791Z" fill="#BCBCBC"/>
<path d="M25.8344 83.7486L27.8235 83.8038L27.8337 83.4357L25.8446 83.3805L25.8344 83.7486Z" fill="#BCBCBC"/>
<path d="M25.7924 84.7041L27.7815 84.7594L27.7917 84.3913L25.8026 84.336L25.7924 84.7041Z" fill="#BCBCBC"/>
<path d="M25.7367 86.6431L27.7258 86.6984L27.736 86.3302L25.7469 86.275L25.7367 86.6431Z" fill="#BCBCBC"/>
<path d="M25.7084 87.599L27.6975 87.6543L27.7077 87.2862L25.7186 87.2309L25.7084 87.599Z" fill="#BCBCBC"/>
<path d="M25.6947 88.5549L27.6838 88.6102L27.694 88.2421L25.7049 88.1868L25.6947 88.5549Z" fill="#BCBCBC"/>
<path d="M25.6391 90.4939L27.6282 90.5492L27.6384 90.1811L25.6493 90.1258L25.6391 90.4939Z" fill="#BCBCBC"/>
<path d="M25.6107 91.4498L27.5999 91.5051L27.6101 91.1369L25.621 91.0817L25.6107 91.4498Z" fill="#BCBCBC"/>
<path d="M25.5824 92.4057L27.5715 92.461L27.5817 92.0929L25.5926 92.0376L25.5824 92.4057Z" fill="#BCBCBC"/>
<path d="M25.527 94.3448L27.5161 94.4L27.5263 94.0319L25.5372 93.9767L25.527 94.3448Z" fill="#BCBCBC"/>
<path d="M25.4994 95.3006L27.4885 95.3559L27.4987 94.9878L25.5096 94.9325L25.4994 95.3006Z" fill="#BCBCBC"/>
<path d="M25.488 96.2748L27.4771 96.3304L27.4873 95.9623L25.4982 95.9067L25.488 96.2748Z" fill="#BCBCBC"/>
<path d="M25.432 98.1955L27.4211 98.2508L27.4314 97.8827L25.4422 97.8274L25.432 98.1955Z" fill="#BCBCBC"/>
<path d="M25.4018 99.1651L27.3909 99.2203L27.4011 98.8522L25.412 98.797L25.4018 99.1651Z" fill="#BCBCBC"/>
<path d="M25.3764 100.135L27.3655 100.19L27.3757 99.8217L25.3866 99.7664L25.3764 100.135Z" fill="#BCBCBC"/>
<path d="M25.3178 102.06L27.3069 102.115L27.3171 101.747L25.328 101.692L25.3178 102.06Z" fill="#BCBCBC"/>
<path d="M25.2895 103.016L27.2786 103.071L27.2888 102.703L25.2997 102.648L25.2895 103.016Z" fill="#BCBCBC"/>
<path d="M25.265 103.972L27.2542 104.027L27.2644 103.659L25.2753 103.604L25.265 103.972Z" fill="#BCBCBC"/>
<path d="M25.3364 101.092L28.252 101.173L28.2622 100.805L25.3466 100.724L25.3364 101.092Z" fill="#BCBCBC"/>
<path d="M25.2358 104.956L28.1514 105.037L28.1616 104.669L25.246 104.588L25.2358 104.956Z" fill="#BCBCBC"/>
<path d="M26.4057 62.5298L29.3213 62.6108L29.3315 62.2427L26.416 62.1617L26.4057 62.5298Z" fill="#BCBCBC"/>
<path d="M26.311 66.3942L29.2266 66.4752L29.2368 66.1071L26.3212 66.0261L26.311 66.3942Z" fill="#BCBCBC"/>
<path d="M26.1987 70.2451L29.1143 70.326L29.1245 69.9579L26.2089 69.8769L26.1987 70.2451Z" fill="#BCBCBC"/>
<path d="M26.0845 74.0958L29 74.1768L29.0102 73.8087L26.0947 73.7277L26.0845 74.0958Z" fill="#BCBCBC"/>
<path d="M25.9897 77.9603L28.9053 78.0413L28.9155 77.6731L25.9999 77.5922L25.9897 77.9603Z" fill="#BCBCBC"/>
<path d="M25.8755 81.8111L28.791 81.8921L28.8012 81.524L25.8857 81.443L25.8755 81.8111Z" fill="#BCBCBC"/>
<path d="M25.7641 85.6616L28.6797 85.7426L28.6899 85.3744L25.7744 85.2934L25.7641 85.6616Z" fill="#BCBCBC"/>
<path d="M25.6548 89.5259L28.5703 89.6069L28.5805 89.2388L25.665 89.1578L25.6548 89.5259Z" fill="#BCBCBC"/>
<path d="M25.5542 93.3767L28.4697 93.4577L28.4799 93.0896L25.5644 93.0086L25.5542 93.3767Z" fill="#BCBCBC"/>
<path d="M25.4458 97.2412L28.3613 97.3221L28.3715 96.954L25.456 96.873L25.4458 97.2412Z" fill="#BCBCBC"/>
<path d="M27.9481 103.524L30.1279 103.875L35.103 72.9993L32.9232 72.6475L27.9481 103.524Z" fill="#FFD41D"/>
<path d="M32.9375 72.6404L35.1172 72.9926L35.1823 72.5886L33.0026 72.2365L32.9375 72.6404Z" fill="#99735E"/>
<path d="M33.002 72.2352L35.1826 72.5898L35.2235 72.317C35.3189 71.7169 34.9101 71.144 34.3104 71.0486C33.7107 70.9531 33.1382 71.3623 33.0428 71.9624L33.002 72.2352Z" fill="#FFD41D"/>
<path d="M27.96 103.51L28.2871 104.792L28.6414 106.183L29.4183 104.983L30.127 103.865L27.96 103.51Z" fill="#E59470"/>
<path d="M28.2864 104.792L28.6407 106.183L29.4176 104.97C29.2541 104.86 29.0632 104.792 28.8588 104.751C28.668 104.724 28.4636 104.738 28.2864 104.779V104.792Z" fill="#FFD41D"/>
<path d="M27.9531 103.511L29.043 103.687L34.0234 72.8118L32.9335 72.6357L27.9531 103.511Z" fill="#F7A616"/>
<path d="M28.4885 103.602L29.5784 103.778L34.5588 72.9032L33.4689 72.7271L28.4885 103.602Z" fill="#FFB83B"/>
<path d="M17.4479 71.9792L15.2686 72.3336L20.2813 103.204L22.4607 102.849L17.4479 71.9792Z" fill="#FFD41D"/>
<path d="M22.4792 102.852L20.2998 103.206L20.3654 103.61L22.5447 103.256L22.4792 102.852Z" fill="#99735E"/>
<path d="M22.5332 103.251L20.3525 103.606L20.3934 103.878C20.4888 104.478 21.0613 104.888 21.661 104.792C22.2606 104.697 22.6695 104.124 22.5741 103.524L22.5332 103.251Z" fill="#E8613D"/>
<path d="M17.4522 71.976L16.7435 70.8712L15.9666 69.6573L15.6123 71.0485L15.2852 72.3306L17.4522 71.976Z" fill="#E59470"/>
<path d="M16.7426 70.8712L15.9657 69.6573L15.6113 71.0485C15.8021 71.103 16.0066 71.1167 16.1974 71.0758C16.3882 71.0485 16.579 70.9667 16.7426 70.8712Z" fill="#FFD41D"/>
<path d="M17.4608 71.9668L16.3711 72.144L21.3838 103.014L22.4735 102.837L17.4608 71.9668Z" fill="#F7A616"/>
<path d="M16.9107 72.0666L15.821 72.2438L20.8338 103.114L21.9235 102.937L16.9107 72.0666Z" fill="#FFB83B"/>
<path d="M25.4743 67.0969L23.2695 67.2156L24.9487 98.4453L27.1535 98.3266L25.4743 67.0969Z" fill="#9FBDF9"/>
<path d="M27.1625 98.3214L24.9578 98.4401L24.9797 98.8487L27.1845 98.73L27.1625 98.3214Z" fill="#99735E"/>
<path d="M27.1828 98.7365L24.9885 98.8592V99.132C25.0294 99.7458 25.561 100.209 26.1606 100.169C26.774 100.141 27.2374 99.623 27.1965 99.0092V98.7365H27.1828Z" fill="#E8613D"/>
<path d="M25.4804 67.1068L24.8944 65.9339L24.2538 64.6381L23.7495 65.9884L23.2861 67.216L25.4804 67.1068Z" fill="#E59470"/>
<path d="M24.8919 65.9339L24.2514 64.6381L23.7471 65.9884C23.9243 66.0566 24.1287 66.0975 24.3331 66.0839C24.5376 66.0839 24.7147 66.0157 24.8919 65.9339Z" fill="#92B6EA"/>
<path d="M25.4823 67.1006L24.3799 67.1602L26.0645 98.3896L27.1669 98.3301L25.4823 67.1006Z" fill="#82A5D8"/>
<path d="M24.9412 67.1262L23.8389 67.1855L25.518 98.4153L26.6204 98.356L24.9412 67.1262Z" fill="#92B6EA"/>
<path d="M22.0109 69.6518L18.4932 70.0797L19.6558 79.6523L23.1735 79.2244L22.0109 69.6518Z" fill="#362D70"/>
<path d="M23.1742 79.2251L19.6565 79.653L22.332 101.682L25.8498 101.254L23.1742 79.2251Z" fill="#C7D6E2"/>
<path d="M23.2443 79.8033L19.7266 80.2312L19.8515 81.2602L23.3693 80.8323L23.2443 79.8033Z" fill="#362D70"/>
<g style="mix-blend-mode:soft-light">
<path d="M19.6676 69.9369L18.4905 70.0801L22.3287 101.682L23.5057 101.538L19.6676 69.9369Z" fill="#C7D6E2"/>
</g>
<path d="M33.6599 88.3432L31.7245 108.925L31.5882 110.521H19.6353L17.55 88.3432H33.6599Z" fill="#A3A0D8"/>
<path d="M33.663 88.3432L31.7277 108.925H21.751L19.8157 88.3432H33.663Z" fill="#BFB8F4"/>
<path d="M198.45 100.769C198.45 100.769 192.317 97.1815 190.981 90.1163C190.981 90.1163 196.76 91.3166 199.649 100.769" fill="#D6D4FF"/>
<path d="M200.876 100.769C200.876 100.769 207.009 97.1815 208.345 90.1163C208.345 90.1163 202.566 91.3166 199.677 100.769" fill="#D6D4FF"/>
<path d="M199.027 100.196C199.027 100.196 194.597 94.631 195.906 87.5658C195.906 87.5658 200.867 90.771 200.158 100.632" fill="#D6D4FF"/>
<path d="M200.452 100.209C200.452 100.209 204.745 94.5354 203.273 87.5112C203.273 87.5112 198.394 90.8392 199.334 100.673" fill="#D6D4FF"/>
<path d="M206.207 99.3365H192.836V110.521H206.207V99.3365Z" fill="#594A5F"/>
<path d="M206.205 99.3365H203.575V110.521H206.205V99.3365Z" fill="#4C4051"/>
<g filter="url(#filter0_d_1_4999)">
<path d="M148.659 62.557H149.172C151.002 62.557 152.497 61.0588 152.497 59.2252V58.7115C152.497 56.878 151.002 55.3798 149.172 55.3798H148.659C146.829 55.3798 145.333 56.878 145.333 58.7115V59.2252C145.333 61.0588 146.829 62.557 148.659 62.557ZM146.01 58.7115C146.01 57.249 147.199 56.0575 148.659 56.0575H149.172C150.631 56.0575 151.821 57.249 151.821 58.7115V59.2252C151.821 60.6878 150.631 61.8792 149.172 61.8792H148.659C147.199 61.8792 146.01 60.6878 146.01 59.2252V58.7115Z" fill="white"/>
</g>
<defs>
<filter id="filter0_d_1_4999" x="141.333" y="55.3798" width="15.1643" height="15.1772" filterUnits="userSpaceOnUse" color-interpolation-filters="sRGB">
<feFlood flood-opacity="0" result="BackgroundImageFix"/>
<feColorMatrix in="SourceAlpha" type="matrix" values="0 0 0 0 0 0 0 0 0 0 0 0 0 0 0 0 0 0 127 0" result="hardAlpha"/>
<feOffset dy="4"/>
<feGaussianBlur stdDeviation="2"/>
<feComposite in2="hardAlpha" operator="out"/>
<feColorMatrix type="matrix" values="0 0 0 0 0 0 0 0 0 0 0 0 0 0 0 0 0 0 0.25 0"/>
<feBlend mode="normal" in2="BackgroundImageFix" result="effect1_dropShadow_1_4999"/>
<feBlend mode="normal" in="SourceGraphic" in2="effect1_dropShadow_1_4999" result="shape"/>
</filter>
</defs>
</svg>
