<svg width="15" height="16" viewBox="0 0 15 16" fill="none" xmlns="http://www.w3.org/2000/svg">
<path d="M9.75 7.98035L6.75 4.98035L6.75 10.9803L9.75 7.98035ZM15 7.98035C15 9.01785 14.8031 9.99285 14.4094 10.9053C14.0156 11.8178 13.4813 12.6116 12.8063 13.2866C12.1313 13.9616 11.3375 14.496 10.425 14.8897C9.5125 15.2835 8.5375 15.4803 7.5 15.4803C6.4625 15.4803 5.4875 15.2835 4.575 14.8897C3.6625 14.496 2.86875 13.9616 2.19375 13.2866C1.51875 12.6116 0.984375 11.8178 0.590625 10.9053C0.196875 9.99285 0 9.01785 0 7.98035C0 6.94285 0.196875 5.96785 0.590625 5.05535C0.984375 4.14285 1.51875 3.3491 2.19375 2.6741C2.86875 1.99909 3.6625 1.46472 4.575 1.07097C5.4875 0.67722 6.4625 0.480346 7.5 0.480346C8.5375 0.480346 9.5125 0.67722 10.425 1.07097C11.3375 1.46472 12.1313 1.99909 12.8063 2.6741C13.4813 3.3491 14.0156 4.14285 14.4094 5.05535C14.8031 5.96785 15 6.94285 15 7.98035ZM13.5 7.98035C13.5 6.30535 12.9188 4.8866 11.7563 3.7241C10.5938 2.5616 9.175 1.98035 7.5 1.98035C5.825 1.98035 4.40625 2.5616 3.24375 3.7241C2.08125 4.8866 1.5 6.30535 1.5 7.98035C1.5 9.65535 2.08125 11.0741 3.24375 12.2366C4.40625 13.3991 5.825 13.9803 7.5 13.9803C9.175 13.9803 10.5938 13.3991 11.7563 12.2366C12.9188 11.0741 13.5 9.65535 13.5 7.98035Z" fill="#1F78FF"/>
</svg>
