<svg width="14" height="14" viewBox="0 0 14 14" fill="none" xmlns="http://www.w3.org/2000/svg">
<g clip-path="url(#clip0_123_1130)">
<path d="M6.15 12.3999C6.15 12.8693 6.53056 13.2499 7 13.2499C7.46944 13.2499 7.85 12.8693 7.85 12.3999H6.15ZM7 2.3999L7.60104 1.79886C7.26909 1.46692 6.7309 1.46692 6.39896 1.79886L7 2.3999ZM1.39896 6.79886C1.06701 7.13081 1.06701 7.669 1.39896 8.00094C1.7309 8.33289 2.26909 8.33289 2.60104 8.00094L1.39896 6.79886ZM11.399 8.00094C11.7309 8.33289 12.2691 8.33289 12.601 8.00094C12.933 7.669 12.933 7.13081 12.601 6.79886L11.399 8.00094ZM7.85 12.3999L7.85 2.3999H6.15L6.15 12.3999H7.85ZM2.60104 8.00094L7.60104 3.00094L6.39896 1.79886L1.39896 6.79886L2.60104 8.00094ZM6.39896 3.00094L11.399 8.00094L12.601 6.79886L7.60104 1.79886L6.39896 3.00094Z" fill="white"/>
</g>
<defs>
<clipPath id="clip0_123_1130">
<rect width="13.2" height="13.2" fill="white" transform="matrix(-1 0 0 -1 13.2002 13.6)"/>
</clipPath>
</defs>
</svg>
