<svg width="12" height="11" viewBox="0 0 12 11" fill="none" xmlns="http://www.w3.org/2000/svg">
<path d="M2.2663 0.747295C1.97258 0.455232 1.49771 0.456576 1.20564 0.750297C0.913579 1.04402 0.914923 1.51889 1.20864 1.81095L4.93883 5.52008L1.2297 9.25026C0.937637 9.54398 0.938981 10.0189 1.2327 10.3109C1.52642 10.603 2.0013 10.6016 2.29336 10.3079L6.00249 6.57773L9.73267 10.2869C10.0264 10.5789 10.5013 10.5776 10.7933 10.2839C11.0854 9.99014 11.084 9.51527 10.7903 9.2232L7.06014 5.51408L10.7693 1.78389C11.0613 1.49017 11.06 1.0153 10.7663 0.723238C10.4725 0.431174 9.99767 0.432519 9.70561 0.72624L5.99648 4.45642L2.2663 0.747295Z" fill="#282828"/>
</svg>
