<svg width="24" height="24" viewBox="0 0 24 24" fill="none" xmlns="http://www.w3.org/2000/svg">
<mask id="mask0_2867_20169" style="mask-type:alpha" maskUnits="userSpaceOnUse" x="0" y="0" width="24" height="24">
<rect width="24" height="24" fill="#D9D9D9"/>
</mask>
<g mask="url(#mask0_2867_20169)">
<path d="M9.30775 13.7213H10.8078V9.30775H9.30775V13.7213ZM5.4135 16.3848V12.4135C4.68533 12.0493 4.101 11.5256 3.6605 10.8422C3.22017 10.1589 3 9.4115 3 8.6C3 7.459 3.3955 6.49042 4.1865 5.69425C4.9775 4.89808 5.94358 4.5 7.08475 4.5C7.28475 4.5 7.48725 4.51667 7.69225 4.55C7.89742 4.58333 8.1 4.625 8.3 4.675L8.3865 4.69425L8.43475 4.61725C8.82575 3.97242 9.3305 3.45833 9.949 3.075C10.5677 2.69167 11.2513 2.5 12 2.5C12.7487 2.5 13.4323 2.69167 14.051 3.075C14.6695 3.45833 15.1775 3.97242 15.575 4.61725L15.623 4.69425L15.7 4.675C15.8935 4.625 16.0887 4.58333 16.2855 4.55C16.4823 4.51667 16.6859 4.5 16.8962 4.5C18.0436 4.5 19.0143 4.89808 19.8085 5.69425C20.6028 6.49042 21 7.46225 21 8.60975C21 9.42125 20.7814 10.167 20.3443 10.847C19.9071 11.5272 19.3212 12.0493 18.5865 12.4135V16.3848H5.4135ZM13.202 13.7213H14.702V9.30775H13.202V13.7213ZM5.4135 21.5V17.8845H18.5865V21.5H5.4135Z" fill="#63A29F"/>
</g>
</svg>
