<svg width="39" height="44" viewBox="0 0 39 44" fill="none" xmlns="http://www.w3.org/2000/svg">
<path d="M37.8889 16.2078V38.1538C37.8889 39.4391 37.3059 40.6718 36.2682 41.5806C35.2305 42.4894 33.8231 43 32.3556 43H6.53333C5.0658 43 3.65838 42.4894 2.62068 41.5806C1.58297 40.6718 1 39.4391 1 38.1538V5.84615C1 4.56087 1.58297 3.32824 2.62068 2.41941C3.65838 1.51058 5.0658 1 6.53333 1H20.0208C20.9988 1.00013 19.833 1.3404 20.5246 1.94601L36.8087 16.2078C37.5002 16.8136 37.8887 15.3513 37.8889 16.2078Z" fill="#F2994A" stroke="#F2994A" stroke-width="2" stroke-linejoin="round"/>
<path d="M20.5977 1C20.5977 5.62463 20.5977 12.8421 20.5977 12.8421C20.5977 13.6796 20.9812 14.4829 21.6639 15.0751C22.3466 15.6673 23.2725 16 24.238 16H37.8893" fill="#F2C94C"/>
<path d="M20.5977 1C20.5977 5.62463 20.5977 12.8421 20.5977 12.8421C20.5977 13.6796 20.9812 14.4829 21.6639 15.0751C22.3466 15.6673 23.2725 16 24.238 16H37.8893L20.5977 1Z" stroke="#F2C94C" stroke-width="2" stroke-linecap="round" stroke-linejoin="round"/>
<path d="M13.9021 34.6924C13.9021 34.0057 14.0554 33.3924 14.3621 32.8524C14.6754 32.3057 15.0988 31.8824 15.6321 31.5824C16.1721 31.2757 16.7754 31.1224 17.4421 31.1224C18.2221 31.1224 18.9054 31.3224 19.4921 31.7224C20.0788 32.1224 20.4888 32.6757 20.7221 33.3824H19.1121C18.9521 33.049 18.7254 32.799 18.4321 32.6324C18.1454 32.4657 17.8121 32.3824 17.4321 32.3824C17.0254 32.3824 16.6621 32.479 16.3421 32.6724C16.0288 32.859 15.7821 33.1257 15.6021 33.4724C15.4288 33.819 15.3421 34.2257 15.3421 34.6924C15.3421 35.1524 15.4288 35.559 15.6021 35.9124C15.7821 36.259 16.0288 36.529 16.3421 36.7224C16.6621 36.909 17.0254 37.0024 17.4321 37.0024C17.8121 37.0024 18.1454 36.919 18.4321 36.7524C18.7254 36.579 18.9521 36.3257 19.1121 35.9924H20.7221C20.4888 36.7057 20.0788 37.2624 19.4921 37.6624C18.9121 38.0557 18.2288 38.2524 17.4421 38.2524C16.7754 38.2524 16.1721 38.1024 15.6321 37.8024C15.0988 37.4957 14.6754 37.0724 14.3621 36.5324C14.0554 35.9924 13.9021 35.379 13.9021 34.6924ZM24.3279 38.2624C23.8412 38.2624 23.4012 38.179 23.0079 38.0124C22.6212 37.8457 22.3145 37.6057 22.0879 37.2924C21.8612 36.979 21.7445 36.609 21.7379 36.1824H23.2379C23.2579 36.469 23.3579 36.6957 23.5379 36.8624C23.7245 37.029 23.9779 37.1124 24.2979 37.1124C24.6245 37.1124 24.8812 37.0357 25.0679 36.8824C25.2545 36.7224 25.3479 36.5157 25.3479 36.2624C25.3479 36.0557 25.2845 35.8857 25.1579 35.7524C25.0312 35.619 24.8712 35.5157 24.6779 35.4424C24.4912 35.3624 24.2312 35.2757 23.8979 35.1824C23.4445 35.049 23.0745 34.919 22.7879 34.7924C22.5079 34.659 22.2645 34.4624 22.0579 34.2024C21.8579 33.9357 21.7579 33.5824 21.7579 33.1424C21.7579 32.729 21.8612 32.369 22.0679 32.0624C22.2745 31.7557 22.5645 31.5224 22.9379 31.3624C23.3112 31.1957 23.7379 31.1124 24.2179 31.1124C24.9379 31.1124 25.5212 31.289 25.9679 31.6424C26.4212 31.989 26.6712 32.4757 26.7179 33.1024H25.1779C25.1645 32.8624 25.0612 32.6657 24.8679 32.5124C24.6812 32.3524 24.4312 32.2724 24.1179 32.2724C23.8445 32.2724 23.6245 32.3424 23.4579 32.4824C23.2979 32.6224 23.2179 32.8257 23.2179 33.0924C23.2179 33.279 23.2779 33.4357 23.3979 33.5624C23.5245 33.6824 23.6779 33.7824 23.8579 33.8624C24.0445 33.9357 24.3045 34.0224 24.6379 34.1224C25.0912 34.2557 25.4612 34.389 25.7479 34.5224C26.0345 34.6557 26.2812 34.8557 26.4879 35.1224C26.6945 35.389 26.7979 35.739 26.7979 36.1724C26.7979 36.5457 26.7012 36.8924 26.5079 37.2124C26.3145 37.5324 26.0312 37.789 25.6579 37.9824C25.2845 38.169 24.8412 38.2624 24.3279 38.2624ZM34.2816 31.2124L31.7216 38.1924H30.0216L27.4616 31.2124H28.9616L30.8816 36.7624L32.7916 31.2124H34.2816Z" fill="#F2F2F2"/>
</svg>
