<svg width="417" height="95" viewBox="0 0 417 95" fill="none" xmlns="http://www.w3.org/2000/svg">
<path d="M205.94 28.6556C207.829 24.5616 210.664 20.94 214.128 18.2632C217.592 15.5864 222.316 14.1692 226.725 14.6416C227.04 14.6416 227.355 14.7991 227.512 14.9565C227.669 15.114 227.827 15.2714 227.827 15.5864C230.661 24.4041 226.882 34.954 219.009 39.9927H205.625L205.94 28.6556Z" fill="#ADE700"/>
<path d="M206.098 32.7493C207.357 30.0725 209.247 27.5531 211.609 25.821C213.971 24.089 216.962 22.9867 219.954 23.3017C220.112 23.3017 220.427 23.3017 220.584 23.4591C220.741 23.6166 220.741 23.774 220.741 23.774C222.631 29.6001 220.112 36.6858 214.915 39.9925H206.098V32.7493Z" fill="#D8FF33"/>
<path d="M196.651 40.7809C192.557 38.419 187.046 38.5764 183.267 35.5847C178.7 31.9631 178.228 25.1923 179.015 19.3662C179.803 13.5402 181.22 7.39925 178.858 2.0456C179.488 1.25829 180.59 1.41575 181.535 1.73068C189.408 4.25004 196.651 9.28878 201.06 16.217C205.469 23.1453 207.358 31.9631 205.311 39.9936" fill="#A2CE00"/>
<path d="M198.225 40.4652C195.391 38.7331 194.761 36.3712 192.084 34.4817C188.935 31.9623 184.998 29.4429 185.471 25.5064C185.943 21.5699 183.739 11.9648 182.164 8.34324C182.479 7.87086 183.424 8.02832 183.896 8.18578C189.25 9.91785 197.438 18.5782 200.587 23.4594C203.736 28.1833 204.209 35.4264 202.949 40.9376" fill="#D8FF33"/>
<path d="M242.944 40.7803H254.754C254.754 66.4463 233.969 87.0737 208.461 87.0737C182.952 87.0737 162.01 66.2889 162.01 40.7803H235.071" fill="white"/>
<path d="M254.283 42.8286C254.283 68.4946 234.128 87.2324 208.462 87.2324C182.796 87.2324 162.326 67.8648 162.326 42.1987L162.799 41.8838C165.948 64.4006 185.158 80.6191 208.62 80.6191C232.081 80.6191 250.662 65.3454 253.968 42.8286H254.283Z" fill="#C6DEE5"/>
<path d="M225.152 85.1842V87.861C219.956 89.908 214.13 91.1677 208.146 91.1677C202.163 91.1677 196.337 90.0655 191.141 87.861V84.5544H191.77C196.809 86.4439 201.218 86.4439 207.044 86.4439C212.083 86.4439 219.169 84.8693 223.735 83.4521L225.152 85.1842Z" fill="#C6DEE5"/>
<path d="M181.221 63.6117H172.403C171.773 63.6117 171.301 63.1393 171.301 62.5095C171.301 61.8796 171.773 61.4072 172.403 61.4072H181.221C181.851 61.4072 182.323 61.8796 182.323 62.5095C182.323 63.1393 181.851 63.6117 181.221 63.6117Z" fill="#C6DEE5"/>
<path d="M187.363 59.9896H169.255C168.625 59.9896 168.152 59.5172 168.152 58.8874C168.152 58.2575 168.625 57.7852 169.255 57.7852H187.205C187.835 57.7852 188.307 58.2575 188.307 58.8874C188.307 59.5172 187.835 59.9896 187.363 59.9896Z" fill="#C6DEE5"/>
<path d="M191.928 59.9896H190.983C190.353 59.9896 189.881 59.5172 189.881 58.8874C189.881 58.2575 190.353 57.7852 190.983 57.7852H191.928C192.558 57.7852 193.03 58.2575 193.03 58.8874C193.03 59.5172 192.4 59.9896 191.928 59.9896Z" fill="#C6DEE5"/>
<path d="M176.023 56.2113H165.788C165.158 56.2113 164.686 55.7389 164.686 55.1091C164.686 54.4792 165.158 54.0068 165.788 54.0068H176.023C176.653 54.0068 177.125 54.4792 177.125 55.1091C177.125 55.7389 176.653 56.2113 176.023 56.2113Z" fill="#C6DEE5"/>
<path d="M180.116 56.2113H179.801C179.172 56.2113 178.699 55.7389 178.699 55.1091C178.699 54.4792 179.172 54.0068 179.801 54.0068H180.116C180.746 54.0068 181.219 54.4792 181.219 55.1091C181.219 55.7389 180.746 56.2113 180.116 56.2113Z" fill="#C6DEE5"/>
<path d="M225.466 84.7121V90.8531C225.466 92.7426 223.891 94.3172 222.002 94.3172H194.761C192.871 94.3172 191.297 92.7426 191.297 90.8531V83.9248" fill="white"/>
<path d="M225.466 84.7121V90.8531C225.466 92.7426 223.891 94.3172 222.002 94.3172H194.761C192.871 94.3172 191.297 92.7426 191.297 90.8531V83.9248" stroke="#4C4047" stroke-width="0.96" stroke-linecap="round" stroke-linejoin="round"/>
<path d="M202.792 76.3671H178.071C177.756 76.3671 177.283 76.0522 177.283 75.7373C177.283 75.4223 177.598 75.1074 178.071 75.1074H202.792C203.107 75.1074 203.579 75.4223 203.579 75.7373C203.579 76.0522 203.264 76.3671 202.792 76.3671Z" fill="#C6DEE5"/>
<path d="M194.918 40.4657C190.982 38.7336 186.258 37.7888 182.794 35.112C178.228 31.4904 177.755 24.7196 178.543 18.8936C179.33 13.0676 180.747 6.9266 178.385 1.57294C179.015 0.785638 180.117 0.943098 181.062 1.25802C188.935 3.77739 196.178 8.81612 200.587 15.7444C204.996 22.6726 206.885 31.4904 204.838 39.5209" stroke="#4C4047" stroke-width="0.96" stroke-linecap="round" stroke-linejoin="round"/>
<path d="M205.939 28.6556C207.829 24.5616 210.663 20.94 214.127 18.2632C217.592 15.5864 222.315 14.1692 226.724 14.6416C227.039 14.6416 227.354 14.7991 227.512 14.9565C227.669 15.114 227.826 15.2714 227.826 15.5864C230.503 24.0892 226.409 34.7965 219.166 40.1502" stroke="#4C4047" stroke-width="0.96" stroke-linecap="round" stroke-linejoin="round"/>
<path d="M187.045 13.2256C194.446 20.3113 199.012 31.9634 200.272 40.1513" stroke="#4C4047" stroke-width="0.96" stroke-linecap="round" stroke-linejoin="round"/>
<path d="M172.877 43.1426H199.015" stroke="white" stroke-width="1.35" stroke-linecap="round" stroke-linejoin="round"/>
<path d="M228.77 40.7803H243.365" stroke="#4C4047" stroke-width="0.96" stroke-linecap="round" stroke-linejoin="round"/>
<path d="M214.304 86.8532C227.861 84.4283 213.989 86.8532 213.989 86.8532C212.572 87.0107 209.879 87.0736 208.304 87.0736C183.898 87.0736 163.9 68.1784 162.011 44.2444C161.853 42.3549 163.428 40.7803 165.318 40.7803H229.735" stroke="#4C4047" stroke-width="0.96" stroke-linecap="round" stroke-linejoin="round"/>
<path d="M242.945 40.7803H251.291C253.18 40.7803 254.755 42.5123 254.597 44.4019C253.023 64.5568 238.536 81.2476 219.326 85.814" stroke="#4C4047" stroke-width="0.96" stroke-linecap="round" stroke-linejoin="round"/>
<path d="M185.627 26.7672C186.497 26.7672 187.202 25.4983 187.202 23.9329C187.202 22.3676 186.497 21.0986 185.627 21.0986C184.758 21.0986 184.053 22.3676 184.053 23.9329C184.053 25.4983 184.758 26.7672 185.627 26.7672Z" fill="#D8FF33"/>
<path d="M222.11 32.8419C223.155 31.7965 223.454 30.4007 222.778 29.7243C222.102 29.0479 220.706 29.347 219.66 30.3924C218.615 31.4377 218.316 32.8335 218.992 33.5099C219.669 34.1863 221.065 33.8872 222.11 32.8419Z" fill="#D8FF33"/>
<path d="M213.655 28.3405C214.524 28.3405 215.229 27.0715 215.229 25.5062C215.229 23.9408 214.524 22.6719 213.655 22.6719C212.785 22.6719 212.08 23.9408 212.08 25.5062C212.08 27.0715 212.785 28.3405 213.655 28.3405Z" fill="#D8FF33"/>
<path d="M177.127 74.4775H199.014" stroke="#4C4047" stroke-width="0.96" stroke-linecap="round" stroke-linejoin="round"/>
<path d="M188.303 24.0898L196.176 26.6092" stroke="#4C4047" stroke-width="0.96" stroke-linecap="round" stroke-linejoin="round"/>
<path d="M193.031 30.0742L198.227 31.6488" stroke="#4C4047" stroke-width="0.96" stroke-linecap="round" stroke-linejoin="round"/>
<path d="M193.504 21.099L196.181 15.5879" stroke="#4C4047" stroke-width="0.96" stroke-linecap="round" stroke-linejoin="round"/>
<path d="M196.338 26.9242L199.015 22.043" stroke="#4C4047" stroke-width="0.96" stroke-linecap="round" stroke-linejoin="round"/>
<path d="M205.785 40.1513C210.824 35.8999 217.437 30.0739 221.374 21.0986" stroke="#4C4047" stroke-width="0.96" stroke-linecap="round" stroke-linejoin="round"/>
<path d="M213.658 25.5078L215.233 30.3891" stroke="#4C4047" stroke-width="0.96" stroke-linecap="round" stroke-linejoin="round"/>
<path d="M210.354 28.8145L211.928 34.483" stroke="#4C4047" stroke-width="0.96" stroke-linecap="round" stroke-linejoin="round"/>
<path d="M211.455 35.2705L215.707 35.9003" stroke="#4C4047" stroke-width="0.96" stroke-linecap="round" stroke-linejoin="round"/>
<path d="M216.965 28.6572L222.004 28.8147" stroke="#4C4047" stroke-width="0.96" stroke-linecap="round" stroke-linejoin="round"/>
<path d="M214.447 32.2783L217.754 32.9082" stroke="#4C4047" stroke-width="0.96" stroke-linecap="round" stroke-linejoin="round"/>
<line y1="94.5" x2="417" y2="94.5" stroke="#D0D0D0"/>
</svg>
