<svg width="39" height="45" viewBox="0 0 39 45" fill="none" xmlns="http://www.w3.org/2000/svg">
<path d="M37.8889 16.4002V38.3462C37.8889 39.6315 37.3059 40.8641 36.2682 41.773C35.2305 42.6818 33.8231 43.1924 32.3556 43.1924H6.53333C5.0658 43.1924 3.65838 42.6818 2.62068 41.773C1.58297 40.8641 1 39.6315 1 38.3462V6.03854C1 4.75326 1.58297 3.52062 2.62068 2.61179C3.65838 1.70296 5.0658 1.19238 6.53333 1.19238H20.0208C20.9988 1.19251 19.833 1.53278 20.5246 2.13839L36.8087 16.4002C37.5002 17.006 37.8887 15.5437 37.8889 16.4002Z" fill="#2F80ED" stroke="#2F80ED" stroke-width="2" stroke-linejoin="round"/>
<path d="M20.5977 1.19238C20.5977 5.81701 20.5977 13.0345 20.5977 13.0345C20.5977 13.872 20.9812 14.6752 21.6639 15.2675C22.3466 15.8597 23.2725 16.1924 24.238 16.1924H37.8893" fill="#56CCF2"/>
<path d="M20.5977 1.19238C20.5977 5.81701 20.5977 13.0345 20.5977 13.0345C20.5977 13.872 20.9812 14.6752 21.6639 15.2675C22.3466 15.8597 23.2725 16.1924 24.238 16.1924H37.8893L20.5977 1.19238Z" stroke="#56CCF2" stroke-width="2" stroke-linecap="round" stroke-linejoin="round"/>
<path d="M26.5744 31.4048V38.3848H25.1744V35.4148H22.1844V38.3848H20.7844V31.4048H22.1844V34.2748H25.1744V31.4048H26.5744ZM30.3924 31.4048C31.1257 31.4048 31.769 31.5481 32.3224 31.8348C32.8824 32.1214 33.3124 32.5314 33.6124 33.0648C33.919 33.5914 34.0724 34.2048 34.0724 34.9048C34.0724 35.6048 33.919 36.2181 33.6124 36.7448C33.3124 37.2648 32.8824 37.6681 32.3224 37.9548C31.769 38.2414 31.1257 38.3848 30.3924 38.3848H27.9524V31.4048H30.3924ZM30.3424 37.1948C31.0757 37.1948 31.6424 36.9948 32.0424 36.5948C32.4424 36.1948 32.6424 35.6314 32.6424 34.9048C32.6424 34.1781 32.4424 33.6114 32.0424 33.2048C31.6424 32.7914 31.0757 32.5848 30.3424 32.5848H29.3524V37.1948H30.3424Z" fill="#F2F2F2"/>
</svg>
