<svg width="40" height="40" viewBox="0 0 40 40" fill="none" xmlns="http://www.w3.org/2000/svg">
<rect x="4" y="4" width="32" height="32" rx="16" fill="#D7EDFF"/>
<rect x="4" y="4" width="32" height="32" rx="16" stroke="#58B0F6" stroke-opacity="0.06" stroke-width="8"/>
<mask id="mask0_469_29256" style="mask-type:alpha" maskUnits="userSpaceOnUse" x="7" y="6" width="24" height="24">
<rect x="7" y="6" width="24" height="24" fill="#D9D9D9"/>
</mask>
<g mask="url(#mask0_469_29256)">
<path fill-rule="evenodd" clip-rule="evenodd" d="M28 20C28 24.4183 24.4183 28 20 28C15.5817 28 12 24.4183 12 20C12 15.5817 15.5817 12 20 12C24.4183 12 28 15.5817 28 20ZM21 16C21 16.5523 20.5523 17 20 17C19.4477 17 19 16.5523 19 16C19 15.4477 19.4477 15 20 15C20.5523 15 21 15.4477 21 16ZM19 19C18.5858 19 18.25 19.3358 18.25 19.75C18.25 20.1642 18.5858 20.5 19 20.5H19.2534C19.4133 20.5 19.5321 20.6481 19.4974 20.8042L19.0383 22.8704C18.7954 23.9633 19.6271 25 20.7466 25H21C21.4142 25 21.75 24.6642 21.75 24.25C21.75 23.8358 21.4142 23.5 21 23.5H20.7466C20.5867 23.5 20.4679 23.3519 20.5026 23.1958L20.9617 21.1296C21.2046 20.0367 20.3729 19 19.2534 19H19Z" fill="#51ACF5"/>
</g>
</svg>
