<svg width="45" height="50" viewBox="0 0 45 50" fill="none" xmlns="http://www.w3.org/2000/svg">
<g style="mix-blend-mode:multiply" opacity="0.2">
<rect width="24.0844" height="24.0844" transform="matrix(0.866025 0.5 -0.866025 0.5 24.1406 13.1372)" fill="#E6E6E6"/>
<rect width="24.0844" height="12.0422" transform="matrix(0.866025 0.5 0 1 3.2832 25.1794)" fill="#C0C0C0"/>
<rect width="24.0844" height="12.0422" transform="matrix(0.866025 -0.5 0 1 24.1406 37.2217)" fill="#9A9A9A"/>
<rect width="11.3124" height="11.3124" transform="matrix(0.866025 0.5 -0.866025 0.5 13.0801 0)" fill="#E6E6E6"/>
<rect width="11.3124" height="5.6562" transform="matrix(0.866025 0.5 0 1 3.2832 5.65625)" fill="#C0C0C0"/>
<rect width="11.3124" height="5.6562" transform="matrix(0.866025 -0.5 0 1 13.0801 11.3125)" fill="#9A9A9A"/>
<rect width="3.63861" height="3.63861" transform="matrix(0.866025 0.5 -0.866025 0.5 3.15039 43.79)" fill="#E6E6E6"/>
<rect width="3.63861" height="1.8193" transform="matrix(0.866025 0.5 0 1 0 45.6099)" fill="#C0C0C0"/>
<rect width="3.63861" height="1.8193" transform="matrix(0.866025 -0.5 0 1 3.15039 47.4287)" fill="#9A9A9A"/>
</g>
</svg>
