<svg width="39" height="45" viewBox="0 0 39 45" fill="none" xmlns="http://www.w3.org/2000/svg">
<path d="M37.8889 17.0155V38.9615C37.8889 40.2467 37.3059 41.4794 36.2682 42.3882C35.2305 43.297 33.8231 43.8076 32.3556 43.8076H6.53333C5.0658 43.8076 3.65838 43.297 2.62068 42.3882C1.58297 41.4794 1 40.2467 1 38.9615V6.65377C1 5.36849 1.58297 4.13585 2.62068 3.22702C3.65838 2.31819 5.0658 1.80762 6.53333 1.80762H20.0208C20.9988 1.80775 19.833 2.14802 20.5246 2.75363L36.8087 17.0155C37.5002 17.6212 37.8887 16.1589 37.8889 17.0155Z" fill="#EB5757" stroke="#EB5757" stroke-width="2" stroke-linejoin="round"/>
<path d="M20.5977 1.80762C20.5977 6.43225 20.5977 13.6497 20.5977 13.6497C20.5977 14.4872 20.9812 15.2905 21.6639 15.8827C22.3466 16.4749 23.2725 16.8076 24.238 16.8076H37.8893" fill="#F9A2A2"/>
<path d="M20.5977 1.80762C20.5977 6.43225 20.5977 13.6497 20.5977 13.6497C20.5977 14.4872 20.9812 15.2905 21.6639 15.8827C22.3466 16.4749 23.2725 16.8076 24.238 16.8076H37.8893L20.5977 1.80762Z" stroke="#F9A2A2" stroke-width="2" stroke-linecap="round" stroke-linejoin="round"/>
<path d="M21.6554 34.18C21.6554 34.5533 21.5654 34.9033 21.3854 35.23C21.2121 35.5567 20.9354 35.82 20.5554 36.02C20.1821 36.22 19.7088 36.32 19.1354 36.32H17.9654V39H16.5654V32.02H19.1354C19.6754 32.02 20.1354 32.1133 20.5154 32.3C20.8954 32.4867 21.1788 32.7433 21.3654 33.07C21.5588 33.3967 21.6554 33.7667 21.6554 34.18ZM19.0754 35.19C19.4621 35.19 19.7488 35.1033 19.9354 34.93C20.1221 34.75 20.2154 34.5 20.2154 34.18C20.2154 33.5 19.8354 33.16 19.0754 33.16H17.9654V35.19H19.0754ZM25.0894 32.02C25.8228 32.02 26.4661 32.1633 27.0194 32.45C27.5794 32.7367 28.0094 33.1467 28.3094 33.68C28.6161 34.2067 28.7694 34.82 28.7694 35.52C28.7694 36.22 28.6161 36.8333 28.3094 37.36C28.0094 37.88 27.5794 38.2833 27.0194 38.57C26.4661 38.8567 25.8228 39 25.0894 39H22.6494V32.02H25.0894ZM25.0394 37.81C25.7728 37.81 26.3394 37.61 26.7394 37.21C27.1394 36.81 27.3394 36.2467 27.3394 35.52C27.3394 34.7933 27.1394 34.2267 26.7394 33.82C26.3394 33.4067 25.7728 33.2 25.0394 33.2H24.0494V37.81H25.0394ZM34.1274 32.02V33.15H31.2174V34.94H33.4474V36.05H31.2174V39H29.8174V32.02H34.1274Z" fill="#F2F2F2"/>
</svg>
