<svg width="39" height="44" viewBox="0 0 39 44" fill="none" xmlns="http://www.w3.org/2000/svg">
<path d="M37.8889 16.2078V38.1538C37.8889 39.4391 37.3059 40.6718 36.2682 41.5806C35.2305 42.4894 33.8231 43 32.3556 43H6.53333C5.0658 43 3.65838 42.4894 2.62068 41.5806C1.58297 40.6718 1 39.4391 1 38.1538V5.84615C1 4.56087 1.58297 3.32824 2.62068 2.41941C3.65838 1.51058 5.0658 1 6.53333 1H20.0208C20.9988 1.00013 19.833 1.3404 20.5246 1.94601L36.8087 16.2078C37.5002 16.8136 37.8887 15.3513 37.8889 16.2078Z" fill="#219653" stroke="#219653" stroke-width="2" stroke-linejoin="round"/>
<path d="M20.5977 1C20.5977 5.62463 20.5977 12.8421 20.5977 12.8421C20.5977 13.6796 20.9812 14.4829 21.6639 15.0751C22.3466 15.6673 23.2725 16 24.238 16H37.8893" fill="#6FCF97"/>
<path d="M20.5977 1C20.5977 5.62463 20.5977 12.8421 20.5977 12.8421C20.5977 13.6796 20.9812 14.4829 21.6639 15.0751C22.3466 15.6673 23.2725 16 24.238 16H37.8893L20.5977 1Z" stroke="#6FCF97" stroke-width="2" stroke-linecap="round" stroke-linejoin="round"/>
<path d="M21.7616 38.1924L20.2516 35.8424L18.8816 38.1924H17.3016L19.5016 34.6724L17.2716 31.2124H18.8816L20.3916 33.5524L21.7516 31.2124H23.3316L21.1416 34.7224L23.3716 38.1924H21.7616ZM25.8371 37.0824H28.1371V38.1924H24.4371V31.2124H25.8371V37.0824ZM31.4369 38.2624C30.9502 38.2624 30.5102 38.179 30.1169 38.0124C29.7302 37.8457 29.4236 37.6057 29.1969 37.2924C28.9702 36.979 28.8536 36.609 28.8469 36.1824H30.3469C30.3669 36.469 30.4669 36.6957 30.6469 36.8624C30.8336 37.029 31.0869 37.1124 31.4069 37.1124C31.7336 37.1124 31.9902 37.0357 32.1769 36.8824C32.3636 36.7224 32.4569 36.5157 32.4569 36.2624C32.4569 36.0557 32.3936 35.8857 32.2669 35.7524C32.1402 35.619 31.9802 35.5157 31.7869 35.4424C31.6002 35.3624 31.3402 35.2757 31.0069 35.1824C30.5536 35.049 30.1836 34.919 29.8969 34.7924C29.6169 34.659 29.3736 34.4624 29.1669 34.2024C28.9669 33.9357 28.8669 33.5824 28.8669 33.1424C28.8669 32.729 28.9702 32.369 29.1769 32.0624C29.3836 31.7557 29.6736 31.5224 30.0469 31.3624C30.4202 31.1957 30.8469 31.1124 31.3269 31.1124C32.0469 31.1124 32.6302 31.289 33.0769 31.6424C33.5302 31.989 33.7802 32.4757 33.8269 33.1024H32.2869C32.2736 32.8624 32.1702 32.6657 31.9769 32.5124C31.7902 32.3524 31.5402 32.2724 31.2269 32.2724C30.9536 32.2724 30.7336 32.3424 30.5669 32.4824C30.4069 32.6224 30.3269 32.8257 30.3269 33.0924C30.3269 33.279 30.3869 33.4357 30.5069 33.5624C30.6336 33.6824 30.7869 33.7824 30.9669 33.8624C31.1536 33.9357 31.4136 34.0224 31.7469 34.1224C32.2002 34.2557 32.5702 34.389 32.8569 34.5224C33.1436 34.6557 33.3902 34.8557 33.5969 35.1224C33.8036 35.389 33.9069 35.739 33.9069 36.1724C33.9069 36.5457 33.8102 36.8924 33.6169 37.2124C33.4236 37.5324 33.1402 37.789 32.7669 37.9824C32.3936 38.169 31.9502 38.2624 31.4369 38.2624Z" fill="#F2F2F2"/>
</svg>
